<svg width="130" height="175" viewBox="0 0 130 175" fill="none" xmlns="http://www.w3.org/2000/svg">
<path fill-rule="evenodd" clip-rule="evenodd" d="M101.645 106.613C101.286 105.628 101.81 104.646 102.1 103.693C103.132 100.39 104.259 97.0858 105.852 94.005C106.456 92.9739 105.463 91.71 104.312 92.0006C102.342 92.2766 100.31 92.0567 98.3367 91.9347C97.6151 90.0669 95.6884 89.2918 94.1723 88.2159C92.452 87.1422 90.7787 85.908 88.9893 84.9665C88.8899 84.0764 87.8113 83.856 87.1518 84.4923C85.3402 83.3651 83.1678 83.5746 81.2261 82.8357C79.7505 80.45 79.6398 77.9411 79.2492 75.6397C79.0786 74.6361 79.2595 73.6682 78.5741 72.7738C76.2721 69.5347 67.1759 68.1298 63.8217 70.0494C62.0166 68.9232 61.9729 70.9633 61.6866 72.2223C61.3674 72.8521 61.1951 73.5656 61.2486 74.3169C59.3095 78.3689 54.8729 80.2005 50.8998 81.6847C50.4013 81.2046 49.6888 81.2656 49.2146 81.6626C45.7708 82.4112 42.4285 83.728 39.5426 85.7837C36.2646 86.743 33.9561 89.4101 32.2866 92.2701C32.103 92.5715 32.0592 92.8788 32.1127 93.1613C26.9793 100.69 24.5293 109.702 24.1847 118.804C20.8835 120.786 25.7538 138.592 26.8881 142.289L26.8913 142.287C27.6269 143.59 28.462 147.308 30.3027 147.02C31.5655 148.448 33.578 148.167 35.2913 148.277C35.0126 149.348 35.1498 150.574 35.482 151.632C35.8746 152.891 37.8029 152.934 38.0762 151.561C55.1408 154.877 72.6495 152.231 89.9059 152.729C94.8955 152.764 99.8841 152.919 104.862 153.274C105.562 153.325 106.273 152.608 106.225 151.91C105.155 140.52 104.151 125.537 102.954 114.26C102.67 111.688 102.445 109.087 101.645 106.613Z" fill="white"/>
<path fill-rule="evenodd" clip-rule="evenodd" d="M61.9616 70.7516C62.0107 70.6182 62.21 70.636 62.2138 70.7857C62.2927 73.988 61.4954 77.9018 58.9342 80.0644C57.619 81.1749 55.8809 81.6832 54.2843 82.2671L54.1044 82.3335L51.2833 83.3846C50.5353 83.6638 49.7283 84.0927 49.0677 83.6984C49.6025 85.0249 50.0513 86.3882 50.7027 87.6667C51.5129 89.2579 52.4932 90.7141 53.6928 92.0384C58.4448 97.2847 65.966 98.885 72.7154 97.3479C76.1906 96.556 79.5728 95.0561 81.944 92.3198C83.7458 90.2398 84.7812 87.4485 85.0254 84.6949C84.9513 84.7069 84.8756 84.7049 84.8023 84.689C83.9484 84.5026 83.0863 84.0446 82.335 83.5952L82.2626 83.552C81.5394 83.1167 80.7859 82.6176 80.2669 81.9414C79.7516 81.2695 79.211 79.0782 79.211 79.0782C79.0635 78.2545 78.9252 76.6136 78.949 75.7813C78.9512 75.7024 79.2995 75.656 79.3368 75.7375C79.6587 76.4445 79.763 77.9974 80.0114 78.733L80.0611 78.8799C80.3268 79.648 80.5542 80.5835 81.1041 81.2041C82.1373 82.3702 83.6956 82.8639 85.0864 83.4489C85.1863 82.131 87.2901 82.1617 87.2637 83.5364C87.262 83.6109 87.2588 83.6849 87.2561 83.7594C87.4224 83.8507 87.5818 83.9549 87.7309 84.0554L87.8767 84.1543C88.4276 84.5291 88.9829 84.8856 89.5694 85.2037C90.7048 85.8195 91.9076 86.3077 93.0711 86.8668C94.2445 87.4263 95.3533 88.1123 96.3777 88.9127C96.8608 89.2912 97.3231 89.6954 97.7626 90.1237L97.8814 90.2409C98.2995 90.6573 98.8434 91.1229 99.0816 91.6701C99.1339 91.7911 99.397 92.0714 99.5396 92.0811C101.751 92.2259 103.957 92.4306 106.154 92.7379C106.723 92.8173 106.948 93.1106 106.737 93.5848C106.015 95.2149 103.186 101.724 102.434 103.471C102.522 104.754 102.403 106.265 102.483 107.549C102.598 109.422 102.75 111.294 102.932 113.163C103.582 119.845 104.568 126.495 105.459 133.148C105.905 136.478 106.312 139.812 106.713 143.147C107.002 145.534 107.221 147.93 107.369 150.33L107.407 150.956C107.46 151.744 107.58 152.497 107.093 153.173C106.872 153.48 106.367 153.653 106.076 153.305C105.711 152.867 105.575 152.539 105.54 151.964C105.513 151.523 105.507 151.08 105.487 150.639C105.444 149.683 105.389 148.727 105.325 147.772C105.199 145.862 105.051 143.954 104.884 142.047C104.293 135.363 103.17 128.73 102.423 122.062C102.044 118.702 101.782 115.331 101.637 111.953C101.567 110.265 101.541 108.577 101.557 106.888C101.564 106.257 101.594 105.628 101.637 105.002C100.518 107.544 99.3429 110.061 98.1109 112.55L97.8193 113.138C97.0399 114.709 96.2394 116.286 95.3028 117.767L95.1413 118.019C94.7622 118.621 94.2437 119.57 93.5512 119.76C93.0689 119.892 92.4802 119.799 91.9854 119.789C91.495 119.78 91.004 119.778 90.5136 119.758C89.971 119.74 89.4323 119.66 88.9078 119.52C88.8232 119.499 88.7403 119.471 88.6599 119.438C88.1246 120.314 87.2145 120.982 86.2844 121.371C85.5396 121.682 84.7586 121.896 83.9765 122.094L83.7005 122.163C82.8622 122.372 81.9029 122.471 81.4298 123.281L81.3201 123.469C80.9685 124.067 80.6315 124.591 80.0492 125.019C79.4232 125.481 78.6811 125.771 77.9417 125.997C77.1849 126.228 76.4104 126.405 75.6418 126.594L75.4323 126.646C74.9251 126.773 74.413 126.89 73.9086 127.028C73.6916 127.085 73.4765 127.149 73.2637 127.22C73.0163 127.305 72.837 127.438 72.642 127.582C72.4664 128.195 71.7173 128.528 71.1015 128.485C70.7895 128.46 70.4883 128.359 70.2238 128.192C69.7626 128.584 69.2554 128.936 68.7855 129.299C66.7714 130.858 64.7292 132.38 62.6599 133.865C60.1842 135.634 57.6587 137.333 55.0863 138.958C54.0123 139.642 52.9318 140.315 51.8451 140.978L51.9612 141.021L52.1918 141.108C52.7373 141.312 53.345 141.641 53.4503 142.277C53.5346 142.782 53.2526 143.13 52.7546 143.191C52.1621 143.265 51.7014 142.846 51.3325 142.447C51.1704 142.27 50.9879 142.107 50.8318 141.925C50.7694 141.849 50.7173 141.766 50.6768 141.676C49.6043 142.312 48.5148 142.919 47.4096 143.497L47.1336 143.639C44.3951 145.04 41.7296 146.574 38.968 147.935C38.248 148.29 37.3692 148.674 36.4542 148.936C36.6973 149.878 36.693 150.912 36.6995 151.868C36.7049 152.8 35.2249 152.796 35.2562 151.868L35.2714 151.421C35.2984 150.668 35.3421 149.886 35.5209 149.153C32.8235 149.601 30.1289 148.628 29.6271 148.336C29.0734 148.014 28.5706 147.499 28.1525 147.02C27.257 145.997 26.6359 144.77 26.0849 143.535C24.9042 140.892 24.0676 138.067 23.4562 135.241C21.2017 124.822 22.1712 113.671 25.8327 103.685C26.7475 101.186 27.8272 98.7517 29.0648 96.3967L29.2187 96.1061C30.4535 93.7803 31.8259 91.4632 33.5694 89.4837C35.3853 87.4225 37.6258 85.8189 40.0644 84.5745C41.255 83.9711 42.4793 83.437 43.7313 82.9746C43.9322 82.8995 44.1348 82.832 44.3379 82.7683C45.6423 81.936 47.2254 81.1404 48.809 81.1717C48.9058 81.1719 48.9987 81.2092 49.0688 81.2759C49.1455 81.2894 49.2217 81.3056 49.2978 81.3278C49.4669 81.3769 49.6451 81.5617 49.6208 81.7518L49.6127 81.815C49.6088 81.8454 49.6021 81.8754 49.5927 81.9046C49.6495 81.9133 49.7051 81.9268 49.7596 81.9452C51.2747 81.5174 52.7654 80.8627 54.2443 80.3345L54.5808 80.2157C55.8193 79.7814 57.0902 79.3558 58.1056 78.4965C59.1167 77.642 59.8767 76.5347 60.426 75.3378C61.1028 73.8633 61.4058 72.2656 61.9616 70.7516ZM92.2992 148.528C92.599 148.305 92.9538 148.564 93.0662 148.84C93.4346 149.747 93.2525 151.157 92.7329 151.959C92.195 152.789 90.9062 152.462 90.8749 151.455C90.8425 150.406 91.4523 149.159 92.2992 148.528ZM95.3979 123.484C95.4249 123.366 95.608 123.367 95.6356 123.484C95.8851 124.548 95.8797 125.694 95.9526 126.785L95.9613 126.906C96.0493 128.109 96.1233 129.316 96.1757 130.522C96.3321 134.07 96.5278 137.616 96.7628 141.159C97.0091 141.022 97.263 140.901 97.526 140.795C97.9197 140.636 98.3032 140.618 98.7267 140.622C99.242 140.627 99.6298 141.081 99.5617 141.586C99.4872 142.136 99.0032 142.371 98.5004 142.293C97.9435 142.206 97.3845 142.071 96.8222 142.015C96.8849 142.923 96.9491 143.831 97.0177 144.739C97.109 145.94 97.2273 147.14 97.311 148.342C97.3186 148.456 97.3272 148.572 97.3359 148.687C97.6713 148.512 98.0272 148.423 98.4307 148.313L98.536 148.284C99.1215 148.115 99.7486 147.882 100.291 148.277C100.655 148.541 100.728 148.978 100.426 149.327C99.9684 149.857 99.2906 149.754 98.6586 149.727L98.3184 149.715C97.9975 149.703 97.7021 149.682 97.4055 149.601C97.4601 150.384 97.4887 151.17 97.3926 151.941C97.3407 152.358 96.792 152.468 96.6467 152.042C96.267 150.931 96.1887 149.732 96.0498 148.567C95.9202 147.479 95.8414 146.384 95.7566 145.291L95.7306 144.964C95.54 142.561 95.3871 140.156 95.2753 137.747C95.1642 135.34 95.0958 132.931 95.0701 130.522C95.0576 129.427 95.076 128.329 95.1187 127.234L95.1322 126.906C95.1813 125.781 95.1473 124.587 95.3979 123.484ZM45.2556 148.705C45.2701 148.552 45.3933 148.36 45.5764 148.385C45.7449 148.406 45.9188 148.396 46.0857 148.424C46.3061 148.46 46.4838 148.59 46.6885 148.673C47.0218 148.806 47.3847 148.875 47.7266 148.984C48.3677 149.188 48.7172 149.864 48.4515 150.494C48.1722 151.157 47.4706 151.307 46.8646 151.029C46.3866 150.81 46.0301 150.459 45.7087 150.054L45.618 149.938C45.4792 149.764 45.322 149.57 45.2642 149.359C45.2075 149.153 45.2356 148.915 45.2556 148.705ZM76.4072 145.589C77.206 145.477 77.8882 145.749 78.6271 146.007L78.687 146.028C79.4389 146.288 80.5364 146.467 80.9221 147.237C81.1543 147.702 80.9739 148.319 80.4268 148.456C79.5599 148.674 78.7826 148.04 78.0659 147.613L78.0281 147.591C77.3367 147.186 76.6227 146.845 76.1809 146.145C76.0631 145.959 76.1652 145.623 76.4072 145.589ZM48.5276 82.051C48.2079 82.1229 47.8881 82.186 47.5684 82.2471C46.3525 82.899 45.1724 83.5752 43.9171 84.1564C42.5852 84.7727 41.2581 85.409 39.9926 86.1549C37.4367 87.6607 35.3297 89.6192 33.5889 92.0201C30.5815 96.1666 28.3443 100.949 26.7428 105.801C26.3317 107.047 25.9632 108.308 25.6377 109.579C26.2135 109.046 26.8951 108.719 27.6599 108.439C27.984 108.32 28.387 108.521 28.5511 108.802C28.6251 108.928 28.6667 109.052 28.6592 109.2C28.6419 109.526 28.4296 109.897 28.0796 109.961C27.263 110.112 26.4684 110.405 25.6815 110.663C25.6322 110.681 25.5795 110.689 25.5271 110.685C25.4746 110.681 25.4236 110.667 25.3774 110.641C24.5926 113.956 24.1092 117.335 23.9331 120.736C23.7881 123.624 23.8761 126.519 24.1961 129.393C24.4408 129.283 24.6806 129.179 24.9491 129.117C25.2974 129.036 25.6404 128.938 25.9802 128.826C26.961 128.504 27.4082 130.124 26.4058 130.37C26.0331 130.462 25.6572 130.539 25.2769 130.595C24.9458 130.643 24.6531 130.622 24.3409 130.571C24.5783 132.363 24.9051 134.142 25.3201 135.901L25.412 136.285C25.951 138.528 26.5797 140.791 27.4887 142.91C27.9343 143.95 28.5247 144.937 29.2533 145.803C29.6114 146.23 30.0095 146.595 30.4427 146.941C30.8029 147.229 32.0295 147.854 33.4825 147.854C34.9349 147.854 35.3281 147.717 36.061 147.464C37.5102 146.965 38.8859 146.169 40.2454 145.459L40.3858 145.386C40.987 145.075 41.5859 144.759 42.1828 144.441C42.1072 143.832 42.2395 143.32 42.5566 142.758C42.8995 142.149 43.7491 142.452 43.8123 143.075L43.8145 143.098C43.8242 143.239 43.8474 143.382 43.8766 143.525C47.8697 141.337 51.7781 138.995 55.6243 136.555C58.1029 134.984 60.5512 133.365 62.9678 131.699C64.8083 130.431 66.6231 129.126 68.4112 127.785C68.6672 127.593 68.9184 127.392 69.1749 127.199C69.1135 127.122 69.0528 127.044 68.9929 126.966C68.0342 125.71 67.4125 124.213 67.1025 122.669C66.915 121.737 66.8248 120.77 66.7973 119.82L66.7854 119.407C66.7665 118.711 66.7611 117.983 66.8897 117.308C66.7152 117.404 66.537 117.498 66.3593 117.599C65.7214 117.96 65.0835 118.321 64.4445 118.679C63.1669 119.401 61.8789 120.104 60.581 120.789C58.259 122.006 55.9143 123.164 53.5059 124.201L52.3344 124.706C50.3008 125.581 48.2511 126.441 46.1365 127.091C44.9469 127.453 43.745 127.774 42.5328 128.051L43.0216 128.624C43.3532 129.013 43.3592 129.571 42.9352 129.898C42.5187 130.22 41.9597 130.086 41.6821 129.659L41.1755 128.88C41.0772 128.732 41.0079 128.567 40.9713 128.393C40.4135 128.51 39.8548 128.622 39.2953 128.73L38.2366 128.932C36.7243 129.224 35.2579 129.802 33.9059 130.542C33.436 130.799 33.3053 130.3 33.8033 129.952C35.2589 128.934 36.9571 128.357 38.7093 127.874L38.7951 127.85C39.4379 127.674 40.0795 127.491 40.7201 127.3C40.645 127.037 40.6102 126.764 40.617 126.49C40.6348 125.84 40.6926 125.189 40.7266 124.54C40.799 123.178 40.8914 121.82 40.9994 120.46C41.041 119.936 41.088 119.411 41.1409 118.886C40.7979 118.702 40.5014 118.458 40.119 118.338L40.0542 118.319C39.6447 118.208 39.783 117.681 40.1465 117.635C40.4742 117.596 40.8062 117.612 41.1285 117.683C41.1787 117.694 41.2262 117.706 41.2721 117.72C41.3316 117.234 41.398 116.749 41.4731 116.267C41.6718 114.993 41.8128 113.651 42.2265 112.428C42.2573 112.337 42.3918 112.304 42.4415 112.399C43.0437 113.546 43.0648 114.952 43.1329 116.228L43.141 116.381C43.2209 117.773 43.2258 119.179 43.2004 120.573C43.1734 122.01 43.1248 123.444 43.0599 124.88C43.034 125.457 43.0351 126.057 42.9363 126.61C46.5205 125.445 50.041 124.049 53.4157 122.398C55.797 121.232 58.1553 120.021 60.4892 118.763C61.658 118.133 62.8322 117.513 64 116.881C64.4094 116.659 64.8183 116.437 65.2266 116.214L65.8397 115.88C66.4133 115.567 66.8918 115.256 67.5599 115.233C67.6556 115.232 67.7503 115.252 67.8375 115.291C67.9247 115.331 68.0021 115.389 68.0644 115.461C68.4231 115.207 68.8384 115.05 69.2738 115.054C69.9263 114.146 70.5975 113.252 71.2868 112.371L71.7978 111.721C72.6825 110.598 73.6196 109.459 74.7479 108.605C75.2519 108.223 75.8055 107.938 76.3834 107.701C76.2382 107.666 76.1045 107.593 75.9956 107.491C75.4441 106.979 75.368 106.029 75.2556 105.315C75.1395 104.574 75.1843 103.911 75.2994 103.173C75.3442 102.886 75.819 102.826 75.9351 103.09C76.1792 103.646 76.438 104.178 76.6599 104.739L76.7258 104.909C76.9646 105.542 77.4728 106.207 77.4388 106.893C77.432 107.067 77.3731 107.236 77.2697 107.376C77.7548 107.215 78.2463 107.072 78.7308 106.922C80.255 106.451 81.7846 105.993 83.3386 105.627C83.7518 105.53 84.1677 105.44 84.5846 105.357C84.8034 104.319 85.1221 103.299 85.4974 102.299C85.142 102.117 84.912 101.811 84.6052 101.539C84.3189 101.284 84.1218 100.975 83.8771 100.682C83.6545 100.416 83.7799 99.9361 84.1795 99.9518L84.293 99.9561C84.7078 99.9755 85.1091 100.019 85.485 100.212L85.619 100.281C85.8026 100.376 86.0035 100.486 86.1823 100.615C86.4162 100.076 86.6598 99.5424 86.9055 99.0147L87.2248 98.3314C88.0528 96.5539 88.8781 94.7088 89.9167 93.0533C90.3785 92.3177 90.9932 91.858 91.8758 91.7867C92.7843 91.7138 93.7289 91.8083 94.6385 91.8408C95.6934 91.8786 96.7477 91.9234 97.8015 91.9785C97.5314 91.6955 97.2851 91.3806 97.0134 91.1089C96.5635 90.6573 96.0873 90.2326 95.5875 89.8369C94.598 89.0564 93.5096 88.4126 92.3797 87.8584C91.2492 87.3043 90.0853 86.8208 89.0239 86.1365C88.3525 85.7033 87.7525 85.1578 87.2048 84.568C86.8602 88.2884 85.0643 91.7446 82.3664 94.3415C79.5642 97.0384 75.6921 98.5205 71.9042 99.1502C68.0401 99.7935 64.0076 99.5575 60.3115 98.2137C58.387 97.514 56.5789 96.5284 54.9481 95.29C54.9302 95.398 54.9086 95.5044 54.866 95.6049C54.8093 95.7399 54.7396 95.8549 54.6602 95.9732L54.5181 96.1812C54.4299 96.3127 54.3355 96.44 54.2351 96.5625C53.9888 96.8558 53.6399 96.9843 53.264 96.9833C52.544 96.9806 51.999 96.2746 52.1924 95.5762C52.3144 95.1371 52.5748 94.873 52.9815 94.7012C53.11 94.6467 53.2407 94.6013 53.3731 94.5565L53.4719 94.523C53.6048 94.4776 53.7366 94.4339 53.8743 94.409C53.1021 93.7305 52.3896 92.9869 51.7446 92.1864C49.7332 89.6781 47.7493 86.1657 48.4218 82.8347C48.4336 82.7775 48.4849 82.7413 48.5406 82.7326C48.5795 82.4988 48.7037 82.2725 48.8744 82.1207C48.7603 82.0906 48.6445 82.0673 48.5276 82.051ZM69.4147 139.642C69.8128 139.42 70.2244 139.947 69.9008 140.272L69.4174 140.756C68.9686 141.207 68.5322 141.662 68.1481 142.176L68.0552 142.302C67.5367 143.007 66.9842 143.825 66.1351 144.089C65.1078 144.407 64.1204 143.156 64.7151 142.241C65.2347 141.442 66.2356 141.141 67.0981 140.81C67.9143 140.498 68.6515 140.066 69.4147 139.642ZM36.2765 135.954C36.511 135.647 37.1207 135.809 36.9609 136.243C36.4418 137.651 36.2301 139.572 34.9187 140.508C34.4952 140.809 33.8309 140.671 33.4819 140.322C33.0866 139.926 33.0704 139.368 33.2972 138.885C33.5727 138.296 34.2522 137.869 34.7285 137.42L34.7712 137.379C35.2832 136.882 35.8369 136.53 36.2765 135.954ZM91.0937 137.575C91.5117 137.395 92.6006 137.045 92.9231 137.46C92.9381 137.474 92.951 137.491 92.9614 137.509C93.0403 137.647 93.0522 137.841 92.9614 137.978C92.5855 138.543 92.1939 138.965 91.6592 139.367L91.5992 139.412C91.0175 139.84 90.4704 140.342 89.7617 140.536C88.7787 140.803 88.0922 139.572 88.7825 138.853C89.3388 138.274 90.1873 137.973 90.9241 137.65L91.0937 137.575ZM51.6247 129.527C51.4605 129.23 51.7964 128.866 52.1005 129.051C52.9685 129.582 53.9796 129.98 54.954 130.266C55.3488 130.382 55.7042 130.782 55.6751 131.214L55.6707 131.279C55.6589 131.431 55.6378 131.582 55.5411 131.709C55.2014 132.153 54.7158 132.325 54.1973 132.062C53.0414 131.476 52.2501 130.658 51.6247 129.527ZM76.9889 128.627C76.9678 128.502 77.0591 128.405 77.1866 128.43C77.9195 128.569 78.5968 128.923 79.2266 129.331C79.5647 129.549 79.8904 129.789 80.2275 130.01C80.6439 130.282 80.7995 130.507 80.861 131.007C80.9015 131.337 80.5937 131.638 80.3112 131.729C79.5415 131.978 78.6595 131.163 78.1383 130.633L78.1145 130.61C77.569 130.053 77.1185 129.395 76.9889 128.627ZM99.0162 127.762C98.8488 127.311 99.4251 126.936 99.8015 127.158C100.156 127.367 100.542 127.54 100.876 127.779C101.184 127.999 101.464 128.26 101.759 128.498L101.905 128.614C102.445 129.049 103.338 130.125 102.565 130.749C101.829 131.343 100.853 130.584 100.359 130.03L100.324 129.99C100.04 129.662 99.6897 129.305 99.4839 128.921C99.2895 128.56 99.1577 128.146 99.0162 127.762ZM91.7575 92.8027C90.8355 92.9815 90.4596 94.1201 90.0712 94.8622C89.1552 96.6133 88.3126 98.3962 87.4662 100.182C87.2059 100.731 86.952 101.285 86.6965 101.837C86.6809 101.88 86.6603 101.923 86.6371 101.965C86.1126 103.094 85.5725 104.216 84.9417 105.288C85.5191 105.18 86.0997 105.088 86.6825 105.015C86.6533 104.466 87.0287 103.732 87.2145 103.269L87.2302 103.23C87.4619 102.638 87.7049 101.706 88.3012 101.398C88.5 101.296 88.7128 101.424 88.7279 101.643C88.7733 102.295 88.1359 103.041 87.8243 103.594C87.6358 103.929 87.4521 104.265 87.2734 104.605C87.2064 104.732 87.1502 104.857 87.0816 104.969C87.3819 104.937 87.6828 104.907 87.9847 104.886L88.1813 104.873C89.2999 104.799 90.4876 104.778 91.4982 105.33C92.4359 105.842 92.9155 106.934 92.4002 107.929C91.7586 109.168 90.3456 109.333 89.1028 109.433C87.5505 109.558 85.9949 109.785 84.4539 110.005C82.8595 110.233 81.3585 110.821 79.7878 111.123C79.642 111.151 79.5512 110.96 79.6852 110.878C80.9237 110.124 82.4295 109.709 83.8144 109.286L83.9268 109.252C84.6775 109.022 85.4121 108.757 86.1894 108.627C86.9438 108.5 87.7022 108.397 88.4633 108.318L88.5373 108.311C89.375 108.241 91.5123 108.265 91.4221 107.024C91.3621 106.203 90.028 106.061 89.4187 106.051C86.6258 106.007 83.8133 106.748 81.1592 107.543L80.5667 107.72C79.4794 108.048 78.3916 108.384 77.3248 108.768C76.1166 109.202 75.1643 109.88 74.2845 110.807C73.3085 111.835 72.3633 112.887 71.3511 113.88C70.7128 114.505 70.0673 115.122 69.4147 115.732C69.2581 115.931 69.1405 116.157 69.068 116.399C68.9302 116.853 68.9621 117.276 69.014 117.743C69.1452 118.922 69.1744 120.114 69.3386 121.289C69.4909 122.378 69.7042 123.507 70.1563 124.517C70.3351 124.917 70.5679 125.31 70.8336 125.661L71.0475 125.939C71.141 126.06 71.2452 126.193 71.3549 126.317C71.5158 126.121 71.7486 125.993 72.0192 126.025C72.5939 126.093 73.046 126.076 73.6099 125.945C74.0468 125.842 74.48 125.723 74.9143 125.612C75.7677 125.394 76.6292 125.196 77.4739 124.945L77.6192 124.902C78.249 124.709 78.8788 124.467 79.4027 124.06C80.0114 123.588 80.1988 122.906 80.6498 122.317C81.6123 121.058 83.6929 121.085 85.1021 120.74C86.299 120.447 87.4516 119.984 88.2802 119.115L88.3282 119.064C88.2915 118.908 88.3509 118.733 88.4951 118.654L88.5265 118.636C88.5803 118.606 88.6411 118.591 88.7025 118.593C88.7792 118.48 88.8538 118.363 88.9207 118.239C88.9764 118.137 89.1152 118.212 89.0968 118.313C89.086 118.373 89.0709 118.432 89.0569 118.492C89.8595 118.285 90.741 118.324 91.5555 118.325L92.613 118.321C92.7961 118.319 93.0689 118.31 93.0932 118.299L93.1181 118.287C93.184 118.259 93.0905 118.306 93.1364 118.245C93.1872 118.178 93.2369 118.109 93.286 118.041C93.4616 117.795 93.6274 117.543 93.7894 117.288C92.0189 117.739 90.1841 118.019 88.3763 118.254C86.4362 118.505 84.4707 118.679 82.5138 118.681C81.9742 118.682 81.9791 117.867 82.5138 117.847C84.5863 117.768 86.6479 117.658 88.7063 117.392C90.1818 117.2 91.6487 116.947 93.1029 116.632L93.4065 116.567C93.5971 116.524 94.1351 116.463 94.3976 116.287L94.5521 116.022C94.5267 115.71 93.7365 115.752 93.5507 115.752C93.0257 115.751 92.4996 115.755 91.9741 115.756C90.923 115.76 89.8724 115.75 88.8208 115.742C86.7208 115.725 84.6127 115.652 82.5143 115.741C82.005 115.763 81.7377 114.946 82.241 114.731C84.4637 113.781 86.9309 113.575 89.3042 113.283C90.5525 113.13 91.8007 112.953 93.0208 112.642L93.3228 112.565C94.0892 112.369 94.9356 112.129 95.581 111.661C94.611 111.268 93.4049 111.313 92.3997 111.258L92.3224 111.253C90.9144 111.166 89.504 111.122 88.0933 111.12C85.2069 111.116 82.3199 111.219 79.4367 111.355C79.3643 111.359 79.3492 111.245 79.4194 111.23C82.3831 110.582 85.3948 110.271 88.4276 110.223C89.8395 110.201 91.2525 110.221 92.6638 110.283L93.1818 110.307C94.3846 110.359 95.7198 110.373 96.7266 111.099C96.88 111.21 96.961 111.352 96.9735 111.501C98.3238 108.809 99.5704 106.061 100.822 103.331C101.796 101.208 102.733 99.0671 103.741 96.9611L104.068 96.2795C104.505 95.3705 104.953 94.4609 105.451 93.5848C103.59 93.3358 101.72 93.1635 99.8485 93.0312C98.1428 92.9107 92.5785 92.6434 91.7575 92.8027ZM90.9338 121.98C91.1455 121.862 91.4707 121.959 91.5231 122.22C91.562 122.415 91.6284 122.631 91.6284 122.83C91.6284 123.07 91.5431 123.329 91.4977 123.562C91.3929 124.1 91.2638 124.536 90.991 125.015C90.8198 125.314 90.4752 125.517 90.1285 125.509C89.8541 125.503 89.6105 125.429 89.422 125.217C89.1968 124.962 89.0417 124.588 89.1654 124.245C89.4895 123.346 90.0858 122.451 90.9338 121.98ZM45.9404 121.084C46.4368 120.214 47.6132 119.437 48.64 119.514C50.1815 119.63 50.4964 121.706 49.0035 122.202C48.1112 122.498 46.884 122.194 46.103 121.706C46.0008 121.644 45.9267 121.544 45.8964 121.428C45.8661 121.312 45.8819 121.189 45.9404 121.084ZM30.0948 118.112C29.9819 117.949 30.1683 117.761 30.3363 117.798C30.7089 117.88 31.1108 117.916 31.4759 118.027C31.8491 118.14 32.211 118.329 32.581 118.459C33.3566 118.731 34.1852 118.867 34.9359 119.195C35.2357 119.327 35.4718 119.761 35.4437 120.082L35.4366 120.156C35.4204 120.316 35.3924 120.454 35.3038 120.6C35.065 120.99 34.5914 121.191 34.1452 121.071C33.3161 120.849 32.507 120.277 31.8005 119.801L31.6698 119.714C31.3609 119.511 31.0292 119.298 30.7802 119.037C30.521 118.763 30.3076 118.422 30.0948 118.112ZM58.5766 114.949C58.481 114.606 58.9088 114.378 59.1578 114.611C59.6552 115.075 60.1759 115.505 60.6631 115.98L60.6961 116.013C61.045 116.364 61.5532 117.04 61.099 117.494C60.5173 118.076 59.7071 117.213 59.3949 116.763C58.9995 116.192 58.7619 115.617 58.5766 114.949ZM96.6672 112.108C95.9289 112.891 94.7914 113.251 93.7894 113.549C92.6017 113.902 91.3783 114.113 90.1533 114.286C88.9694 114.454 87.7951 114.604 86.6301 114.796C87.511 114.807 88.3925 114.813 89.2713 114.829C90.2851 114.848 91.2984 114.869 92.3122 114.899C93.05 114.92 93.9164 114.819 94.618 115.094C94.7444 115.143 94.8621 115.211 94.9653 115.295C95.5545 114.244 96.1219 113.182 96.6672 112.108ZM51.1213 104.792C51.8915 104.547 52.6164 104.222 53.433 104.306C53.6507 104.328 53.8057 104.54 53.6874 104.749C53.3007 105.431 52.6709 105.815 52.0508 106.271L51.9968 106.312C51.3119 106.817 50.5955 107.277 49.852 107.691C48.5816 108.404 47.4431 106.363 48.7264 105.764C49.4982 105.404 50.3089 105.05 51.1213 104.792ZM64.9971 103.02C66.1762 103.097 67.3547 103.15 68.5349 103.198C69.9025 103.254 69.4428 105.358 68.3005 104.933C67.1716 104.512 66.0433 104.096 64.9047 103.703C64.5579 103.584 64.5855 103.014 64.9749 103.019L64.9971 103.02ZM34.7545 99.275C35.0602 99.2534 35.3686 99.3204 35.6743 99.3501L36 99.3814C36.6714 99.4484 37.3006 99.5305 37.9412 99.8038C39.1224 100.308 38.4878 102.208 37.3017 102.165C36.4256 102.132 35.6759 101.756 34.9359 101.317C34.2889 100.934 33.8924 100.455 33.4555 99.8529C33.3107 99.6536 33.5122 99.43 33.7093 99.41C34.0566 99.3749 34.4072 99.2993 34.7545 99.275ZM93.9688 95.3953C93.7724 96.6116 93.2884 97.7634 92.5569 98.7549C92.1896 99.2556 91.5441 99.2745 91.1801 98.7549C90.6648 98.0203 90.9824 97.1788 91.3708 96.4734L91.4853 96.2665C91.6592 95.957 91.926 95.5049 92.2312 95.1928L92.236 95.1609C92.3997 93.8835 94.1697 94.1384 93.9688 95.3953ZM46.278 87.5646C46.5718 87.2999 47.113 87.3793 47.2086 87.8103C47.342 88.4142 47.4231 89.0942 47.3356 89.7073C47.2886 90.0389 47.2708 90.4121 47.14 90.7216C46.9996 91.0543 46.7295 91.3104 46.4757 91.5604C45.968 92.06 44.8969 91.8948 44.7613 91.1078L44.7441 91.0111C44.6755 90.639 44.5874 90.2409 44.689 89.8715C44.7657 89.5928 44.9369 89.3092 45.0778 89.0505L45.1076 88.9954C45.3911 88.4682 45.8324 87.9654 46.278 87.5646ZM87.5964 88.849L87.7028 88.8501C88.5232 88.8663 90.0231 89.0661 90.0312 90.0805C90.0329 90.3192 89.8562 90.5671 89.6186 90.6222C89.1282 90.7357 88.8111 90.4462 88.4616 90.1529C88.1719 89.9137 87.8461 89.7219 87.4964 89.5847C87.1227 89.4361 87.147 88.8485 87.5964 88.849Z" fill="black"/>
<path fill-rule="evenodd" clip-rule="evenodd" d="M90.194 59.0874C89.4784 53.9222 87.8418 48.9077 87.6068 43.6658L87.1877 36.9359C87.1348 35.5342 85.3151 35.0616 84.62 36.3028C83.0406 34.5507 80.212 34.8083 78.0542 34.8618C65.3505 35.3122 53.2782 43.9045 48.9173 55.885C48.8125 56.1707 48.8443 56.4748 48.9626 56.7465C46.9301 63.5278 54.1186 67.8936 59.0213 70.9172C61.0101 73.0199 63.3477 74.7666 65.9873 75.963C69.0502 77.3983 72.3777 78.1822 75.7592 78.265C76.4954 78.2818 76.9378 77.686 76.9913 77.0697C78.0618 76.8202 79.8933 77.1081 80.4594 76.0111C86.9139 73.2062 91.1198 66.0977 90.194 59.0874Z" fill="white"/>
<path fill-rule="evenodd" clip-rule="evenodd" d="M87.1768 40.7711C87.1584 40.6037 87.4004 40.5983 87.4501 40.7339C87.859 41.8492 88.283 42.9565 88.607 44.0994C88.9198 45.2012 89.1445 46.3279 89.3724 47.4498C89.7505 49.3116 90.0756 51.1874 90.3441 53.0687C90.9188 52.6204 91.6701 52.5793 92.3776 52.9282C92.7098 53.0924 92.8373 53.5256 92.7573 53.8616C92.6936 54.1311 92.6153 54.3995 92.5213 54.662C92.7222 54.8397 92.8924 55.0585 93.0161 55.3102C93.3418 55.9724 93.237 56.667 92.9448 57.2989C92.9669 57.3362 92.989 57.3745 93.0096 57.4145C93.4325 58.236 93.2062 58.9722 92.8972 59.7743C92.6661 60.3738 92.7951 61.0495 92.2961 61.5027C92.1261 62.0649 91.85 62.5892 91.4826 63.0475C91.3954 63.2037 91.2686 63.3341 91.1148 63.4255C91.0809 64.3079 90.9785 65.1862 90.8086 66.0527C90.1302 69.429 87.9772 72.4375 85.3123 74.5597C82.704 76.6359 79.641 77.8765 76.336 78.2779C74.7307 78.4728 73.1239 78.4113 71.5321 78.1331L71.3339 78.098C69.8647 77.8312 68.0877 77.3899 67.0718 76.2816C66.5381 75.6988 66.8503 74.416 67.7944 74.537C68.2946 74.6012 68.7299 74.6812 69.2009 74.8659C69.5682 75.0101 69.9366 75.1489 70.3136 75.2667C71.0357 75.4914 71.7827 75.6669 72.533 75.7641C74.0955 75.9661 75.7191 75.9127 77.2639 75.6075C80.0725 75.0533 82.8012 73.7748 84.9331 71.8498C87.4107 69.6121 88.863 66.7154 89.0764 63.3753C89.3146 59.6549 88.8852 55.8454 88.5287 52.1445C88.3431 50.2189 88.1083 48.2983 87.8244 46.3846C87.5479 44.5147 87.3815 42.6481 87.1768 40.7711ZM65.2499 28.7577L65.3698 28.7393C70.1397 28.0134 75.158 28.0647 79.6415 30.034C80.5009 30.4121 81.3418 30.8669 82.1336 31.3957C82.7008 31.3363 83.2717 31.2882 83.8318 31.2806C84.5367 31.2714 85.2248 31.6377 85.3117 32.3512C85.9723 32.4333 86.581 32.6763 86.9699 33.163C87.1187 33.3494 87.2229 33.5674 87.2745 33.8003C87.6807 33.8959 88.0788 34.0434 88.4569 34.2373C88.9154 34.4733 89.1801 35.1306 89.0181 35.6173C88.9809 35.727 88.9384 35.8348 88.8906 35.9403L88.8539 36.0191L88.8755 36.0488C89.2417 36.6376 88.9873 37.4105 88.4255 37.7621C88.0048 38.0257 87.5343 38.2358 87.0509 38.3373C87.0909 38.5318 87.1271 38.7268 87.1568 38.9245C87.1681 39.0044 87.0655 39.0611 87.0201 38.9822C87.0201 38.9822 87.1935 39.5224 87.4549 40.1171C87.5576 40.3509 87.2286 40.5589 87.1033 40.3223C86.7701 39.6925 86.5637 39.0465 86.2613 38.3968C85.9757 38.3795 85.6956 38.3103 85.4349 38.1926C85.2645 38.112 85.1231 37.9809 85.0298 37.8172C85.0244 37.8237 85.0206 37.8318 85.0152 37.8399C84.1148 38.9985 82.3551 39.4046 80.9951 39.7714C79.5346 40.1657 78.0395 40.4087 76.539 40.5875C73.9189 40.8991 71.2782 40.9575 68.6462 41.0785L68.1234 41.1033C67.0545 42.042 65.6772 42.6248 64.2642 42.8025C63.4749 42.8981 62.6751 42.8588 61.899 42.6864C61.6071 42.9847 61.2423 43.2016 60.8409 43.3157C60.7685 44.8113 59.9351 46.2269 58.675 47.0522L58.6977 47.1408C59.0104 48.4182 59.0066 49.8139 57.8843 50.7013C57.7314 50.8211 57.5663 50.9243 57.3917 51.0092L57.43 51.0978C58.0096 52.4535 58.1948 53.9507 57.1049 55.0752C56.663 55.5311 55.8874 55.4231 55.5558 54.9002L55.5396 54.8738C55.5212 54.8424 55.5012 54.8127 55.4823 54.7819C55.4539 54.8444 55.4036 54.8942 55.3408 54.9218C54.9265 55.1001 54.7607 54.9688 54.3832 54.7852C54.0325 54.6165 53.6659 54.483 53.2889 54.3866C52.9866 54.3071 52.6787 54.2503 52.368 54.2164C50.4214 54.9607 49.164 57.2438 49.4627 59.3865C49.6247 60.5532 50.2653 61.7085 51.3812 62.1924C51.8694 62.4047 52.4431 62.4938 52.9718 62.422C53.687 62.3248 54.2374 61.8743 54.9779 62.1319C55.2701 62.2335 55.4526 62.463 55.4683 62.7768C55.4948 63.27 55.3203 63.64 55.0254 63.9138C55.545 64.3475 55.9636 64.9503 56.4146 65.431C56.9779 66.0327 57.5499 66.6344 58.1592 67.1891C58.7335 67.7175 59.3468 68.2017 59.994 68.6377L60.062 68.6826C60.8744 69.2119 61.8974 69.6812 61.9363 70.7874C61.9487 71.1207 61.7467 71.4264 61.4728 71.5965C60.4493 72.2312 59.3356 71.3978 58.5335 70.7874C58.212 70.5433 57.8988 70.2886 57.5942 70.0237C57.3706 70.0392 57.1466 69.9983 56.9428 69.9049C56.7948 69.8395 56.6504 69.7663 56.5102 69.6856C56.0505 69.8012 55.6168 69.6996 55.2598 69.4587C54.7451 69.5851 54.1995 69.6002 53.7367 69.4987C53.3251 69.4061 52.9429 69.2131 52.624 68.937C51.9732 69.1444 51.251 69.106 50.6093 68.7117C50.2248 68.4757 49.925 68.1387 49.7613 67.7449C49.6744 67.611 49.626 67.4557 49.6215 67.2961V67.2323C49.0624 67.2453 48.5018 67.053 48.0697 66.6106C47.6942 66.2276 47.4756 65.718 47.4566 65.182C46.8727 65.0184 46.3575 64.6701 45.988 64.1893C45.3399 63.351 45.2535 62.3156 45.5867 61.3909C45.565 61.3421 45.5455 61.2924 45.5284 61.2418C45.0115 60.5121 44.6696 59.6323 44.6977 58.7497C44.7009 58.6125 44.7193 58.478 44.7463 58.3446C44.2375 58.074 43.8632 57.5987 43.8232 56.9948C43.7963 56.5236 43.9566 56.0607 44.2694 55.7072C44.1161 55.3504 44.0577 54.96 44.0998 54.574C44.1408 54.2018 44.276 53.8462 44.4924 53.5407C44.4876 53.4338 44.4936 53.3267 44.5103 53.221C44.4897 53.1151 44.4725 53.0049 44.4638 52.8937C44.3666 51.6698 45.2108 50.5987 46.2392 50.0337C46.5093 49.8852 46.8015 49.7642 47.0937 49.6616C47.3059 49.586 47.6257 49.5611 47.8126 49.4234C47.8045 49.4174 47.8828 49.317 47.8958 49.2635C47.9109 49.1971 47.9271 49.1322 47.9352 49.0647C47.9654 48.7817 47.9428 48.4906 47.9374 48.2059C47.912 46.9161 47.9519 45.6204 48.0875 44.3376C48.3397 41.9583 48.962 39.6309 50.1735 37.552C51.1905 35.8101 52.5824 34.3383 54.179 33.1181C57.3587 30.6887 61.327 29.3675 65.2499 28.7577ZM50.5137 58.343C50.0995 57.3481 52.0482 57.3383 52.5635 57.3853L52.5786 57.387C53.7383 57.5025 55.5515 58.0605 56.0262 59.2309C56.2223 59.7154 55.6411 60.241 55.1755 60.0816C54.7202 59.9255 54.4653 59.5907 54.0996 59.2974C54.0033 59.221 53.904 59.1484 53.802 59.0797C53.856 59.2504 53.9414 59.4081 54.0602 59.5258L54.0883 59.5523C54.6495 60.0568 53.6459 60.8491 53.2738 60.1816C53.0738 59.8341 52.9977 59.4291 53.0577 59.0327C53.0761 58.9133 53.108 58.8048 53.1549 58.7005C53.1171 58.6822 53.0809 58.6622 53.0437 58.6444L52.9767 58.613C52.53 58.4105 50.6245 57.6143 50.6396 58.3262C50.6412 58.4051 50.5391 58.4051 50.5137 58.343Z" fill="black"/>
<path fill-rule="evenodd" clip-rule="evenodd" d="M77.3197 69.2837C76.5458 68.9678 75.8714 68.4488 75.3677 67.7816C75.2906 67.6838 75.2345 67.571 75.2031 67.4505C75.1717 67.3299 75.1656 67.2041 75.1852 67.0811C75.2262 66.8289 75.3753 66.6009 75.5784 66.4475C75.782 66.2941 76.0369 66.2185 76.2832 66.2569C76.4977 66.2904 76.7105 66.4076 76.8795 66.6512L76.9146 66.6998C77.2082 67.1015 77.5948 67.426 78.0413 67.6455C78.4735 67.8579 78.9572 67.9429 79.4359 67.8907C80.3747 67.7849 81.0212 67.2772 81.7088 66.5874C81.7941 66.5005 81.8794 66.4108 81.9648 66.3195C82.0149 66.2423 82.09 66.1845 82.1776 66.1559C82.2726 66.1259 82.3748 66.1272 82.469 66.1594C82.5633 66.1917 82.6448 66.2533 82.7015 66.3352C82.7539 66.4124 82.7842 66.508 82.7744 66.6182C82.7112 67.3328 82.338 67.9701 81.8076 68.4708C81.2183 69.0272 80.4373 69.4117 79.7022 69.5468C78.8926 69.6953 78.0673 69.5889 77.3197 69.2837ZM80.0846 58.2609C80.9461 58.7853 82.2592 60.0071 81.3323 61.3061C80.2407 62.4512 78.67 61.1381 77.896 60.544C77.1782 60.0838 76.3713 61.2678 77.0372 61.8052C82.6318 65.9485 84.902 58.3981 80.5205 57.6451C80.0376 57.562 79.8588 58.0988 80.0846 58.2609ZM70.0599 53.4414C70.155 52.259 71.9547 51.9906 72.134 53.1605C72.2939 54.2083 72.1054 55.1714 71.6333 56.115C71.1828 57.0159 70.0497 56.5957 69.9638 55.7747C69.8487 54.6745 70.0005 54.177 70.0599 53.4414ZM83.7602 52.918C84.0113 52.589 84.3737 52.3649 84.8075 52.4913C86.1637 52.8883 85.764 54.8144 85.2876 55.752C85.0289 56.2608 84.1923 56.3899 83.8142 55.9416C83.1984 55.2108 82.903 53.7509 83.6867 53.0303C83.7078 52.9936 83.7315 52.9558 83.7602 52.918ZM71.6144 48.2686L71.8288 48.2308C72.4916 48.1163 73.3153 48.0061 73.7841 48.5387C74.0331 48.8217 74.1184 49.3472 73.7841 49.6178C73.1964 50.0931 72.5461 49.9095 71.8418 49.9495C71.2669 49.9824 70.6975 50.0795 70.1442 50.239C68.917 50.5901 67.9173 51.2301 66.8694 51.9333C66.7322 52.0252 66.5918 51.8496 66.6572 51.7211C67.2621 50.5355 68.4342 49.5622 69.6084 48.9686C70.2355 48.6516 70.9209 48.389 71.6144 48.2686ZM82.5238 47.7377L82.688 47.7711C84.4726 48.1438 86.7908 48.8892 87.6355 50.643C87.668 50.8909 87.6339 50.9438 87.6064 50.9784L87.5972 50.9903C87.574 51.02 87.5561 51.0605 87.4487 51.0945C87.4183 51.0873 87.3881 51.0797 87.3579 51.0718C86.9707 50.9703 86.6644 50.8304 86.3679 50.6851L86.046 50.5269C85.6727 50.3432 85.2963 50.1671 84.8971 50.037C84.0463 49.7582 83.1699 49.5646 82.2808 49.459C82.0911 49.4402 81.9099 49.3712 81.7558 49.2592C81.6089 49.1489 81.505 48.991 81.4619 48.8125C81.3993 48.5603 81.4176 48.3696 81.5527 48.1417C81.6542 47.971 81.8 47.8527 81.9669 47.7847C82.144 47.7148 82.3376 47.6984 82.5238 47.7377Z" fill="black"/>
<path fill-rule="evenodd" clip-rule="evenodd" d="M90.2933 58.9561C88.9078 60.3885 86.595 60.799 84.7521 60.031C80.019 58.053 82.3356 51.8832 85.9858 50.2261C86.4417 50.1127 87.0509 49.8426 87.6062 49.7816C87.6564 49.7567 87.7655 49.828 87.8978 49.7605C91.9228 50.2099 92.8394 56.4602 90.2933 58.9561ZM75.0278 59.3229C73.4738 61.3845 70.5852 62.0208 68.2249 61.0621C63.562 59.2251 65.2159 53.7542 68.4064 51.6088C75.145 49.0756 77.9282 55.5215 75.0278 59.3229ZM64.9199 54.7545L64.9069 54.7496L64.9809 54.7167L64.9561 54.7788C64.9442 54.7707 64.9334 54.761 64.9199 54.7545ZM93.5011 52.526C93.1208 52.5265 92.571 52.5891 92.2561 52.8533C91.4794 50.2331 88.6129 47.8085 86.1197 49.5763C84.1564 50.2083 82.6997 51.6088 81.8717 53.4706C80.3788 52.5827 78.0314 52.9618 76.7367 54.1366C75.8887 51.3344 73.8022 50.353 71.3187 50.2077C68.6079 49.7638 65.9062 52.3974 65.063 54.5104C64.3619 54.4304 63.3146 54.2074 62.6552 54.64C58.3752 53.5171 50.8923 52.8981 50.0222 53.5219C49.4021 53.7596 49.0619 55.2244 49.9282 55.3033C50.6828 55.1958 49.8396 54.2306 50.6007 54.1247C54.6543 53.8736 58.5891 54.6902 62.6001 55.0332C62.9582 55.515 64.1151 55.676 64.7325 55.4826C63.7602 59.0663 65.8586 61.505 69.0027 62.2352C73.8719 63.3538 78.1075 58.9966 76.8345 54.465C78.3095 53.7304 80.0061 53.7628 81.6124 54.149C78.9275 64.0338 94.8411 63.5904 92.356 53.1919C94.0099 54.0151 94.369 52.6918 93.5011 52.526Z" fill="black"/>
</svg>
