<svg width="123" height="13" viewBox="0 0 123 13" fill="none" xmlns="http://www.w3.org/2000/svg">
<path d="M122.273 0.36377H120.177V8.29559H120.075L114.597 0.36377H112.711V12.0001H114.819V4.074H114.915L120.398 12.0001H122.273V0.36377Z" fill="#232536"/>
<path d="M107.718 6.18186C107.718 2.4205 105.422 0.20459 102.371 0.20459C99.3142 0.20459 97.0244 2.4205 97.0244 6.18186C97.0244 9.93754 99.3142 12.1591 102.371 12.1591C105.422 12.1591 107.718 9.94323 107.718 6.18186ZM105.598 6.18186C105.598 8.82959 104.269 10.2671 102.371 10.2671C100.479 10.2671 99.1437 8.82959 99.1437 6.18186C99.1437 3.53414 100.479 2.09664 102.371 2.09664C104.269 2.09664 105.598 3.53414 105.598 6.18186Z" fill="#232536"/>
<path d="M92.0376 0.36377H89.9297V12.0001H92.0376V0.36377Z" fill="#232536"/>
<path d="M82.8625 3.56254H84.8909C84.8511 1.59664 83.175 0.20459 80.6977 0.20459C78.2545 0.20459 76.4193 1.57959 76.425 3.63641C76.425 5.30686 77.6125 6.26709 79.5273 6.76141L80.8511 7.10232C82.1068 7.4205 82.9364 7.81254 82.942 8.71595C82.9364 9.71027 81.9932 10.375 80.6182 10.375C79.3 10.375 78.2773 9.78414 78.192 8.56254H76.1182C76.2034 10.875 77.925 12.1762 80.6352 12.1762C83.425 12.1762 85.0443 10.7841 85.05 8.733C85.0443 6.71595 83.3795 5.7955 81.6295 5.38073L80.5386 5.108C79.5841 4.88073 78.55 4.47732 78.5613 3.50573C78.567 2.63073 79.3511 1.98868 80.6693 1.98868C81.925 1.98868 82.7545 2.57391 82.8625 3.56254Z" fill="#232536"/>
<path d="M71.2564 0.36377H69.1484V12.0001H71.2564V0.36377Z" fill="#232536"/>
<path d="M51.6484 0.36377V12.0001H53.6712V3.98877H53.7791L56.995 11.966H58.5064L61.7223 4.00582H61.8303V12.0001H63.853V0.36377H61.2734L57.8189 8.79559H57.6825L54.228 0.36377H51.6484Z" fill="#232536"/>
<path d="M31.2734 12.0001H33.3814V7.73877H35.5291L37.8132 12.0001H40.1655L37.6484 7.3865C39.0178 6.83536 39.7393 5.66491 39.7393 4.08536C39.7393 1.86377 38.3075 0.36377 35.6371 0.36377H31.2734V12.0001ZM33.3814 5.98877V2.12513H35.3132C36.8871 2.12513 37.5916 2.84672 37.5916 4.08536C37.5916 5.324 36.8871 5.98877 35.3246 5.98877H33.3814Z" fill="#232536"/>
<path d="M23.8743 0.36377V7.78991C23.8743 9.25013 22.8572 10.2956 21.2607 10.2956C19.6584 10.2956 18.647 9.25013 18.647 7.78991V0.36377H16.5391V7.96604C16.5391 10.466 18.4141 12.1763 21.2607 12.1763C24.0959 12.1763 25.9822 10.466 25.9822 7.96604V0.36377H23.8743Z" fill="#232536"/>
<path d="M11.5457 6.18186C11.5457 2.4205 9.25027 0.20459 6.19913 0.20459C3.14231 0.20459 0.852539 2.4205 0.852539 6.18186C0.852539 9.93754 3.14231 12.1591 6.19913 12.1591C9.25027 12.1591 11.5457 9.94323 11.5457 6.18186ZM9.4264 6.18186C9.4264 8.82959 8.09686 10.2671 6.19913 10.2671C4.30708 10.2671 2.97186 8.82959 2.97186 6.18186C2.97186 3.53414 4.30708 2.09664 6.19913 2.09664C8.09686 2.09664 9.4264 3.53414 9.4264 6.18186Z" fill="#232536"/>
</svg>
