<svg width="365" height="336" viewBox="0 0 365 336" fill="none" xmlns="http://www.w3.org/2000/svg">
<circle cx="200.07" cy="177.887" r="147.96" fill="#F5F5FF"/>
<path d="M232.573 204.751C234.611 202.474 236.491 200.061 238.2 197.529C238.497 196.595 237.55 195.523 236.787 196.314C234.772 198.677 232.944 201.195 231.32 203.843C230.864 204.47 231.958 205.071 232.573 204.751Z" fill="#191919"/>
<path d="M211.015 176.093C211.393 176.662 211.887 177.144 212.465 177.508C213.044 177.871 213.693 178.106 214.37 178.199C215.046 178.291 215.735 178.238 216.389 178.044C217.044 177.849 217.649 177.517 218.166 177.07C218.621 176.441 219.381 175.657 219.373 174.879C219.279 174.725 219.133 174.61 218.961 174.556C218.789 174.501 218.603 174.511 218.438 174.583C218.252 174.68 214.639 178.035 212.086 175.145C211.618 174.998 210.855 175.784 211.015 176.093Z" fill="#191919"/>
<path d="M304.353 10.3848C297.221 8.35868 289.937 6.91439 282.571 6.0661C271.295 4.69664 259.93 4.19675 248.578 4.57086C235.288 5.16337 231.408 4.86368 223.026 7.28968C217.93 8.76451 214.598 12.8637 211.539 16.7739C198.419 33.5326 192.907 56.6815 191.85 78.19C191.66 80.772 191.703 83.3659 191.977 85.9403C192.148 87.0231 193.39 87.1553 193.528 85.9165C194.343 78.4585 194.632 71.3361 195.828 64.0116C200.342 36.3599 210.061 24.7104 210.549 23.149C215.221 16.7191 218.511 10.9205 226.471 9.40861C234.566 7.06696 274.306 5.9111 297.854 11.4153C296.682 11.9407 295.595 12.6372 294.629 13.482C291.546 16.5689 288.887 20.0519 286.722 23.8394C279.936 34.6262 274.539 46.2262 270.658 58.3644C268.428 65.1573 266.822 72.1393 265.86 79.2239C265.543 81.6445 265.373 84.0821 265.351 86.5233C265.362 87.2966 266.605 87.4331 266.594 86.6571C267.614 81.1169 268.84 76.7863 271.988 63.9355C278.283 44.0372 285.562 30.0367 291.652 21.2877C293.87 18.1072 296.357 14.5461 300.064 13.4028C301.57 12.6663 303.296 12.5146 304.908 12.977C306.519 13.4395 307.902 14.4833 308.789 15.9065C311.173 19.7478 309.694 24.4244 308.978 28.3124C307.803 32.8202 306.634 37.3442 305.304 41.5536C302.448 39.7249 299.27 38.4573 295.939 37.8187C291.745 36.8051 287.357 36.9265 283.226 38.1703C282.61 38.49 282.782 39.572 283.398 39.2523C285.455 38.9875 287.536 38.9559 289.6 39.1579C292.671 39.1984 295.716 39.7279 298.621 40.7263C300.172 41.2728 301.685 41.9229 303.15 42.6722C304.085 42.9681 304.869 43.7278 305.803 44.0289C306.272 44.1773 306.738 44.3248 307.034 43.3895C309.131 39.0284 310.827 34.4857 312.1 29.8175C313.04 25.7482 314.135 20.9442 312.833 16.9308C310.739 13.936 307.78 11.6521 304.353 10.3848Z" fill="#191919"/>
<path d="M216.335 25.2281C229.176 24.8952 250.715 22.5758 271.104 26.0933C272.347 26.2298 276.532 26.0091 274.17 23.7197C273.223 22.6479 270.894 22.7034 269.653 22.5489C251.078 20.211 247.971 21.119 229.013 22.5523C224.844 22.8621 220.656 23.7661 216.165 24.1453C215.549 24.465 215.56 25.2478 216.335 25.2281Z" fill="#191919"/>
<path d="M240.706 46.567C239.27 45.3787 237.594 44.5144 235.793 44.0335C233.992 43.5525 232.108 43.4661 230.271 43.7802C228.479 44.0658 226.838 44.9527 225.618 46.2949C224.397 47.6371 223.67 49.3548 223.555 51.1654C223.639 51.7601 223.853 52.329 224.182 52.8319C224.51 53.3347 224.945 53.7593 225.456 54.0755C226.084 54.5308 226.859 54.5207 227.788 54.8132C231.047 55.0692 234.767 54.7052 237.597 57.1439C238.383 57.907 239.65 59.5936 238.575 60.5331C236.657 61.7151 234.491 62.438 232.248 62.6457C230.226 62.6207 228.205 62.7558 226.204 63.0496C225.281 63.5287 225.921 64.7599 226.548 65.2162L227.951 65.6587C231.19 65.9822 234.461 65.612 237.546 64.5729C239.848 63.7262 242.052 62.6464 242.29 60.1607C242.597 56.903 239.559 54.1521 236.759 53.2634C233.795 52.0662 230.384 52.2741 227.123 52.0148C225.411 51.7299 226.312 49.6989 226.768 49.0723C227.288 48.4161 227.94 47.8774 228.683 47.4917C229.426 47.1059 230.242 46.8819 231.077 46.8343C233.994 46.7386 236.887 47.3885 239.483 48.7224C240.73 48.118 241.333 47.0232 240.706 46.567Z" fill="#191919"/>
<path d="M259.976 48.293C257.864 46.9358 255.358 46.3261 252.859 46.5614C250.36 46.7967 248.012 47.8635 246.19 49.591C244.823 51.4727 244.559 53.9545 246.434 55.3258C247.847 56.5409 249.867 56.6697 251.59 57.7279C255.177 60.6697 252.805 65.905 244.434 66.5259C242.883 66.5497 242.453 68.7265 243.858 69.1681C250.405 71.2395 259.492 63.4173 254.682 56.9035C251.778 52.9791 247.202 54.5397 248.088 51.732C249.581 47.8304 256.262 48.6586 259.376 49.386C260 49.8439 260.604 48.7483 259.976 48.293Z" fill="#191919"/>
<path d="M229.507 75.4445C231.042 74.6475 231.898 69.5129 232.194 68.5775C232.344 68.1103 232.452 67.0842 231.706 66.8825C229.233 66.2028 229.506 70.5672 228.403 74.0692C228.254 74.5364 228.427 75.6201 229.2 75.6039L229.507 75.4445Z" fill="#191919"/>
<path d="M238.128 41.6515C239.973 40.6933 242.537 35.8453 240.197 35.1051C239.262 34.8092 238.807 35.4376 238.511 36.3729C238.215 37.3082 235.797 41.6796 237.819 41.8118L238.128 41.6515Z" fill="#191919"/>
<path d="M246 80.1651C246.307 80.0057 246.307 80.0057 246.457 79.5385C247.073 78.2872 247.572 76.9814 247.947 75.6377C248.403 75.0111 248.676 72.5248 247.284 72.8556C245.892 73.1863 245.61 74.8984 245.003 75.9889C244.707 76.9242 244.108 78.0172 244.275 79.1018C244.304 80.663 245.236 80.9538 246 80.1651Z" fill="#191919"/>
<path d="M256.488 43.8469C257.543 42.1272 258.138 40.2548 259.201 38.5402C259.656 37.9119 260.251 36.0463 259.006 35.9047C256.832 35.4706 255.36 40.9249 254.917 42.3283C254.311 43.4205 255.428 45.5709 256.488 43.8469Z" fill="#191919"/>
<path d="M167.286 255.337C168.669 254.361 170.903 252.922 172.827 251.415C173.464 250.84 173.123 250.48 172.04 250.653C168.884 251.812 165.842 253.26 162.954 254.98C162.761 255.075 162.593 255.212 162.463 255.382C162.332 255.552 162.242 255.75 162.2 255.96C162.158 256.17 162.165 256.387 162.221 256.594C162.276 256.801 162.378 256.993 162.519 257.154C163.934 258.526 166.868 257.927 168.896 258.143C170.139 258.279 171.221 258.107 172.463 258.239C173.069 258.375 173.696 258.386 174.307 258.271C174.917 258.155 175.498 257.917 176.012 257.569C177.902 254.988 170.435 255.26 167.286 255.337Z" fill="#191919"/>
<path d="M192.862 253.913C191.94 253.85 191.029 254.142 190.317 254.73C189.604 255.318 189.144 256.157 189.031 257.073C188.878 258.1 189.12 259.147 189.709 260.002C190.299 260.857 191.191 261.456 192.205 261.679C192.921 261.801 193.656 261.722 194.329 261.448C195.002 261.175 195.585 260.718 196.012 260.131C196.438 259.543 196.692 258.848 196.745 258.123C196.797 257.399 196.645 256.674 196.307 256.032C195.989 255.391 195.498 254.853 194.888 254.478C194.279 254.103 193.577 253.907 192.862 253.913Z" fill="#191919"/>
<path d="M219.404 256.941C218.149 256.029 216.784 257.912 217.73 258.984C219.654 260.406 221.42 262.029 222.999 263.826C219.575 263.997 216.178 264.531 212.867 265.42C212.413 265.571 212.73 266.662 213.506 266.651C216.335 266.825 224.661 265.292 225.9 265.684C226.321 265.405 226.617 264.973 226.725 264.479C226.832 263.985 226.743 263.469 226.476 263.04C224.272 260.835 221.908 258.797 219.404 256.941Z" fill="#191919"/>
<path d="M253.65 113.698C230.969 108.732 207.592 107.779 184.582 110.881C183.639 111.037 182.761 111.463 182.055 112.107C181.349 112.751 180.845 113.586 180.603 114.511C173.037 139.646 164.685 216.204 162.2 239.348C162.118 240.019 162.179 240.699 162.38 241.344C162.58 241.989 162.915 242.584 163.362 243.091C163.809 243.597 164.358 244.003 164.974 244.282C165.589 244.56 166.256 244.705 166.932 244.707C182.303 245.712 211.022 250.209 222.56 251.76C223.834 251.975 225.142 251.702 226.223 250.995C227.305 250.289 228.08 249.201 228.395 247.948L230.999 235.655C231.155 234.431 230.92 233.189 230.329 232.106C223.432 218.825 193.514 166.22 202.81 157.3C203.543 156.679 204.471 156.335 205.432 156.328C211.329 156.392 223.314 165.675 237.32 182.362C237.95 183.087 238.77 183.623 239.687 183.908C240.605 184.194 241.584 184.218 242.514 183.978C243.445 183.739 244.29 183.244 244.955 182.551C245.621 181.858 246.079 180.993 246.281 180.053L258.067 119.222C258.025 117.948 257.572 116.722 256.776 115.727C255.98 114.731 254.884 114.019 253.65 113.698ZM228.699 134.862C228.219 133.94 229.29 132.994 229.769 133.917C231.29 135.706 232.38 137.821 232.953 140.098C233.526 142.375 233.567 144.754 233.073 147.05C231.847 152.195 227.789 155.441 226.718 157.385C225.646 158.332 224.734 159.587 223.184 159.611C223.043 159.63 222.9 159.615 222.767 159.566C222.635 159.517 222.516 159.435 222.422 159.329C222.328 159.223 222.262 159.095 222.23 158.957C222.198 158.819 222.2 158.676 222.237 158.539C222.555 157.36 223.247 156.317 224.21 155.566C224.973 154.78 225.884 153.525 226.648 152.736C228.133 150.906 229.307 148.845 230.122 146.634C230.894 144.712 231.168 142.626 230.918 140.569C230.669 138.513 229.904 136.553 228.694 134.871L228.699 134.862ZM225.057 130.11C222.155 133.956 210.628 150.189 210.018 150.817C209.256 151.605 207.558 152.095 207.225 150.704C205.456 146.543 203.525 142.075 201.447 138.074C200.808 136.843 202.343 136.046 203.294 137.115C205.359 140.34 206.958 143.418 209.024 146.643C212.812 141.012 226.329 122.341 230 118.556C231.215 117.143 233.419 119.125 232.668 120.688C231.513 122.28 225.32 129.766 225.053 130.119L225.057 130.11ZM197.362 155.056C197.99 155.511 197.386 156.607 196.759 156.151C187.597 152.092 183.584 136.843 196.898 124.816C199.921 121.779 203.885 119.857 208.142 119.367C211.085 119.012 216.524 119.704 217.815 122.941C217.867 123.085 217.882 123.239 217.86 123.391C217.839 123.542 217.78 123.686 217.691 123.809C217.601 123.933 217.482 124.033 217.345 124.1C217.208 124.168 217.057 124.201 216.904 124.196C215.193 123.911 213.778 122.693 211.908 122.101C205.749 121.082 201.193 123.768 196.646 128.078C187.734 136.5 188.43 148.567 197.362 155.056ZM203.584 216.695C204.063 217.618 205.303 217.751 205.932 218.211C207.96 219.106 210.129 218.768 212.013 220.135C216.081 222.636 214.837 228.583 208.61 230.889C207.294 231.226 205.942 231.403 204.584 231.417C203.149 231.392 201.769 230.864 200.684 229.924C200.205 229.001 200.34 227.757 201.89 227.734C202.974 227.563 203.76 228.326 205.004 228.462C207.491 228.734 211.971 227.581 211.924 224.479C212.059 223.235 210.496 222.483 209.56 222.188C208.159 221.744 206.609 221.771 205.213 221.321C204.177 221.019 203.239 220.451 202.492 219.672C201.746 218.893 201.217 217.932 200.96 216.884C200.137 213.795 203.067 212.666 205.689 211.694C207.039 211.19 208.506 211.086 209.914 211.394C211.322 211.702 212.611 212.41 213.627 213.433C214.414 214.198 213.018 215.321 212.252 214.538C210.478 212.743 207.744 213.361 205.729 214.018C204.805 214.498 203.575 215.137 203.746 216.219C202.956 216.242 203.113 216.544 203.582 216.692L203.584 216.695ZM180.6 225.115C179.159 223.915 180.696 221.547 182.115 222.765C183.603 223.779 185.326 224.397 187.12 224.558C188.914 224.72 190.719 224.422 192.365 223.691C193.596 223.051 195.136 222.252 194.795 220.866C194.537 220.182 194.059 219.603 193.436 219.221C192.813 218.839 192.081 218.675 191.354 218.755C188.095 218.499 184.08 219.796 180.942 217.517C180.314 217.052 179.801 216.45 179.441 215.757C179.081 215.064 178.884 214.298 178.864 213.517C178.825 212.656 179.051 211.804 179.511 211.076C179.972 210.348 180.645 209.778 181.439 209.445C184.509 207.851 188.851 207.159 191.987 209.438C192.146 209.575 192.261 209.754 192.318 209.955C192.375 210.156 192.372 210.37 192.309 210.569C192.246 210.769 192.126 210.945 191.964 211.076C191.801 211.208 191.604 211.289 191.395 211.309C189.399 210.947 187.366 210.821 185.34 210.935C183.949 211.268 181.167 211.931 181.191 213.482C181.554 217.191 186.817 216.064 189.449 215.836C194.665 215.386 197.55 218.278 197.126 220.837C197.493 224.555 193.034 226.526 189.934 227.307C188.312 227.645 186.636 227.624 185.023 227.245C183.41 226.866 181.9 226.138 180.599 225.112L180.6 225.115ZM187.331 229.044C187.477 230.633 187.236 232.234 186.626 233.708C186.638 234.484 186.514 236.501 185.739 236.514C185.123 236.834 184.496 236.378 184.484 235.603C184.46 234.052 184.596 232.809 184.573 231.259C184.56 230.483 184.391 229.404 184.845 228.772C185.605 227.981 186.997 227.65 187.329 229.041L187.331 229.044ZM198.307 186.219C199.241 186.515 200.481 186.653 200.961 187.577C201.6 188.807 200.516 188.98 199.745 188.988C198.662 189.161 197.572 188.556 196.631 188.262C189.302 186.656 183.18 186.96 176.596 186.553C175.512 186.724 175.799 185.018 176.573 185.002C183.431 185.42 187.614 183.719 198.305 186.215L198.307 186.219ZM177.657 175.054C180.054 174.227 182.55 173.719 185.08 173.545C187.18 173.775 191.112 172.874 192.698 174.668C193.325 175.124 193.188 176.362 192.264 176.842C190.49 177.763 187.688 176.345 184.818 176.801L177.839 176.909C176.906 176.618 176.575 175.227 177.657 175.054ZM189.373 200.624C189.365 201.457 189.108 202.269 188.636 202.955C188.314 203.803 188.119 204.693 188.059 205.598L187.615 207.002C187.367 207.112 187.087 207.128 186.829 207.046C186.571 206.964 186.351 206.79 186.212 206.557C185.892 205.941 186.338 204.543 186.325 203.764C186.811 202.199 186.817 199.992 187.956 199.4C188.135 199.349 188.323 199.344 188.504 199.384C188.686 199.424 188.854 199.508 188.995 199.63C189.135 199.751 189.243 199.905 189.309 200.079C189.376 200.252 189.397 200.44 189.373 200.624ZM204.063 237.935C203.786 236.497 203.816 235.017 204.15 233.591C204.153 233.414 204.204 233.241 204.297 233.091C204.391 232.94 204.523 232.818 204.68 232.736C204.837 232.655 205.013 232.617 205.19 232.627C205.367 232.637 205.538 232.695 205.685 232.794C205.932 232.991 206.111 233.26 206.199 233.564C206.286 233.868 206.277 234.191 206.173 234.489C206.252 238.781 204.767 242.367 204.063 237.935ZM209.482 206.985C209.334 207.451 208.559 207.464 207.931 207.009C207.144 206.244 207.735 204.373 208.187 203.749C208.678 202.195 210.759 202.937 210.361 204.184C210.428 205.194 210.114 206.194 209.482 206.985Z" fill="#DEDFFC"/>
<path d="M205.14 54.8799C205.767 55.3361 207.155 55.0071 207.625 55.1529L213.682 55.5257C214.457 55.513 215.855 55.9582 216.463 54.8608C217.511 52.3678 211.775 52.608 210.383 52.9387C209.608 52.9515 203.565 53.3528 204.832 55.0402C204.981 54.573 204.981 54.573 205.14 54.8799Z" fill="#191919"/>
<path d="M271.253 146.75C276.489 125.563 281.65 103.594 281.281 102.883C280.653 102.428 277.652 98.9065 274.823 96.4679C244.131 87.7885 209.956 84.4345 177.768 89.4261C165.058 148.559 156.902 208.58 153.373 268.96C153.705 270.351 158.613 276.79 160.164 276.766C195.239 278.089 219.348 282.373 230.398 284.841C240.046 286.863 237.325 283.705 240.507 276.464C242.658 271.567 244.441 264.028 246.426 253.061C249.941 258.493 253.885 263.634 258.221 268.436C268 278.988 281.164 287.785 296.181 285.847L300.354 284.852C301.151 286.386 309.812 295.56 313.146 299.703C317.133 303.811 325.705 314.222 327.648 314.835C328.276 315.29 329.343 314.346 329.023 313.731C328.272 311.133 325.889 310.48 322.232 305.925C319.711 303.326 317.188 300.728 314.975 297.971C313.367 296.314 302.34 284.037 302.195 283.895C302.343 283.429 302.652 283.269 302.639 282.494C302.626 281.719 301.535 281.118 300.757 281.126C287.487 285.672 274.039 278.589 264.44 269.89C253.578 259.508 245.93 246.286 238.134 233.534C229.227 218.639 221.22 203.222 214.158 187.368C212.059 182.346 205.831 170.279 208.384 164.964C210.466 160.635 215.069 168.638 261.593 215.496C263.167 217.025 264.741 218.552 266.316 220.078C267.105 220.842 268.17 219.897 267.388 219.132C262.729 213.374 257.778 207.858 252.554 202.606C253.285 201.455 254.215 200.443 255.3 199.617C256.658 198.479 257.898 197.094 259.277 195.989C262.607 192.124 264.326 190.452 265.964 187.044C266.26 186.109 265.167 185.509 264.709 186.132C263.421 187.344 262.295 188.717 261.359 190.217C257.442 194.765 259.144 193.624 254.034 197.93C252.94 198.851 251.582 199.985 250.511 200.931C248.411 198.893 214.881 162.831 210.207 161.683C209.483 161.501 208.725 161.496 207.999 161.669C207.272 161.842 206.598 162.188 206.034 162.677C202.837 165.37 205.328 174.719 207.06 178.949C210.292 187.429 214.449 195.432 218.295 203.594C223.303 214.179 232.847 230.78 238.697 240.634C235.672 249.857 233.454 260.699 230.823 272.11C207.159 266.427 180.031 267.616 154.911 268.157C161.001 209.893 168.765 149.593 180.118 90.9422C209.558 88.9389 242.168 90.7631 271.756 98.8423C261.509 138.552 251.734 177.446 250.183 188.984C249.849 191.461 250.519 193.209 252.189 188.332C253.621 184.157 255.728 176.335 259.087 163.258C261.757 165.388 263.798 167.062 263.798 167.062C262.958 172.97 260.307 182.163 259.875 184.341C259.442 186.518 260.757 186.94 261.722 183.382C263.311 177.524 267.109 163.42 270.789 148.576C274.625 151.563 278.597 154.81 282.422 157.775C289.175 163.011 299.02 168.727 302.734 177.324C304.665 181.792 305.362 186.9 306.677 191.688C308.999 201.424 311.478 211.469 313.801 221.206C317.956 238.634 320.51 248.58 331.81 262.654C335.185 267.045 338.987 271.09 343.161 274.73C344.416 275.642 345.795 274.536 344.995 272.996C339.745 265.654 332.355 259.188 327.262 249.381C321.526 240.033 320.94 232.763 317.836 221.451C315.355 211.407 313.032 201.669 310.244 191.785C308.931 186.997 307.924 182.048 306.302 177.419C302.444 166.38 291.312 161.297 271.253 146.75ZM237.69 254.471C239.505 256.192 241.143 258.09 242.581 260.137C242.285 261.073 242.296 261.849 242.005 262.781C241.379 262.325 237.613 259.591 236.519 258.988C236.83 257.465 237.222 255.959 237.693 254.478L237.69 254.471ZM235.927 260.858C235.927 260.858 241.119 265.586 241.279 265.893C241.13 266.362 240.551 269.008 240.255 269.943C240.095 269.635 236.147 265.042 235.204 263.969C235.336 262.911 235.58 261.871 235.93 260.865L235.927 260.858ZM232.559 273.94C232.868 273.78 233.867 268.179 234.46 266.31C234.939 267.233 239.059 272.91 239.059 272.91C238.345 275.686 237.4 278.399 236.236 281.019L232.559 273.94ZM214.85 272.194C217.336 272.466 227.919 274.787 230.554 274.59C232.119 277.169 233.408 279.905 234.402 282.753C234.561 283.06 217.606 280.598 213.418 279.973C204.844 278.692 196.312 277.132 187.612 276.181C178.443 275.081 171.784 275.802 159.674 275.059C159.546 274.909 155.335 269.712 155.247 269.541C174.831 270.511 194.733 269.421 214.854 272.201L214.85 272.194ZM274.721 100.037C276.063 101.98 277.543 103.823 279.149 105.554C278.682 105.404 277.373 111.164 276.794 113.81C276.794 113.81 272.87 110.768 272.083 110.005C273.118 106.731 273.688 103.302 274.721 100.037ZM271.492 111.876C272.815 113.498 274.35 114.935 276.056 116.148C274.279 121.759 272.664 127.679 271.197 133.129L266.963 130.248C267.849 126.662 271.059 114.053 271.492 111.876ZM264.067 163.8C262.585 162.664 261.014 161.651 259.369 160.769C259.652 159.058 260.983 154.851 260.972 154.075C261.131 154.382 265.063 158.201 265.063 158.201C264.836 160.084 264.504 161.954 264.067 163.8ZM261.564 152.204C262.291 149.089 265.943 134.299 266.385 132.895C267.712 133.973 269.128 134.937 270.617 135.778C270.617 135.778 265.954 155.393 265.808 155.861C264.29 154.766 262.87 153.544 261.564 152.204Z" fill="#191919"/>
<path d="M185.115 273.572C191.973 274.324 197.885 274.889 203.143 275.932C204.524 276.217 205.924 276.405 207.332 276.493C208.107 276.481 210.283 276.91 210.581 275.978C210.73 275.51 210.73 275.51 210.569 275.202C210.09 274.279 208.848 274.147 208.076 274.152C196.548 272.889 200.796 272.768 185.248 272.332C184.004 272.187 184.03 273.735 185.115 273.572Z" fill="#191919"/>
<path d="M200.301 103.517C203.095 103.63 203.051 101.308 202.889 100.225C202.078 97.9113 199.617 99.1892 199.023 100.284C198.565 101.678 199.523 103.523 200.301 103.517Z" fill="#191919"/>
<path d="M189.949 103.802C190.568 103.847 191.188 103.733 191.751 103.471C192.314 103.209 192.801 102.808 193.166 102.306C193.531 101.803 193.762 101.216 193.836 100.6C193.911 99.9831 193.827 99.3578 193.593 98.7828C191.983 94.9288 187.983 97.0065 187.082 99.0374C186.823 99.5322 186.696 100.085 186.712 100.644C186.729 101.202 186.889 101.746 187.177 102.225C187.465 102.704 187.871 103.1 188.356 103.376C188.842 103.652 189.39 103.799 189.949 103.802Z" fill="#191919"/>
<path d="M72.6525 152.601C74.8267 153.035 82.5483 150.589 84.2459 150.097C88.579 149.41 93.3753 148.831 97.8719 148.492C103.914 148.035 113.297 147.1 117.637 152.687C118.838 154.52 119.593 156.609 119.842 158.787C120.091 160.965 119.826 163.171 119.07 165.228C117.599 169.9 113.951 173.406 110.251 176.843C101.041 185.527 90.5953 192.798 79.2535 198.419C74.4939 200.549 76.693 194.265 77.6065 192.242C82.5501 181.717 89.3984 172.198 97.8057 164.166C98.8775 163.219 97.3028 161.692 96.231 162.639C87.7592 170.447 80.8008 179.752 75.7049 190.086C74.3972 192.204 73.6349 194.614 73.4861 197.099C73.6167 200.511 76.0301 201.973 79.433 201.046C83.8955 199.824 89.225 195.852 92.9638 193.237C100.043 188.281 114.526 177.295 118.969 169.57C124.237 160.41 121.985 149.036 111.01 146.74C102.49 145.535 87.4163 146.337 72.6098 151.051C72.4606 151.519 71.845 151.838 72.6336 152.602L72.6525 152.601Z" fill="#191919"/>
<path d="M98.1739 239.392C91.4789 242.869 87.2021 246.104 81.3937 247.715C75.9534 249.226 71.7681 248.122 66.3422 247.326C57.0943 245.97 47.5068 251.045 38.8419 254.573C35.6159 255.891 31.2337 256.512 28.674 259.072C27.8995 259.848 28.8555 260.926 29.6331 260.919C33.3506 260.551 37.4809 257.96 41.045 256.555C55.0673 251.035 58.5815 249.464 63.8908 249.38C67.928 249.629 71.8292 251.154 75.7065 251.061C84.5444 250.847 91.2895 245.702 98.3554 241.247C98.971 240.927 99.4272 240.301 99.2669 239.992C99.2474 239.225 98.781 239.077 98.1739 239.392Z" fill="#191919"/>
<path d="M67.2848 197.995C67.4399 204.546 65.41 210.962 61.5151 216.232C57.7918 221.767 52.1827 224.595 48.0676 229.467C47.3054 230.255 47.9421 231.481 49.3354 231.154C60.7396 226.013 70.4296 210.821 68.5288 198.13C68.0497 197.208 66.9651 197.379 67.2848 197.995Z" fill="#191919"/>
<path d="M80.5364 192.669C81.604 191.39 83.0618 190.495 84.6863 190.124C85.5195 190.003 86.3451 189.835 87.1589 189.619C87.9348 189.608 88.5615 190.065 89.0134 189.438C89.0545 189.418 89.0912 189.39 89.1211 189.355C89.151 189.32 89.1736 189.28 89.1875 189.236C89.2015 189.193 89.2065 189.147 89.2022 189.101C89.1979 189.055 89.1845 189.011 89.1627 188.971C88.6835 188.048 86.3567 188.083 85.5816 188.096C84.3861 188.256 83.2414 188.681 82.2315 189.341C81.2217 190.001 80.3722 190.878 79.7452 191.909C79.4527 192.842 80.0768 193.297 80.5364 192.669Z" fill="#191919"/>
<path d="M87.4236 205.119C88.0822 204.572 88.8501 204.172 89.6758 203.945C90.5016 203.718 91.3663 203.67 92.2121 203.804C93.9233 204.089 94.8654 205.161 96.4325 205.91C96.5389 205.929 96.6482 205.921 96.7509 205.888C96.8536 205.854 96.9466 205.796 97.0218 205.719C97.0971 205.641 97.1522 205.547 97.1825 205.443C97.2128 205.339 97.2173 205.23 97.1957 205.124C97.0142 203.27 94.3703 202.694 92.9642 202.242C91.8774 202.049 90.7597 202.125 89.7098 202.466C88.6598 202.807 87.7098 203.401 86.9436 204.195C85.7124 204.835 86.6571 205.907 87.4236 205.119Z" fill="#191919"/>
<path d="M98.9144 216.738C100.01 217.342 100.929 216.865 101.708 216.85C102.884 216.833 104.034 217.195 104.988 217.884C105.613 218.338 106.253 219.569 107.177 219.089C108.712 218.292 106.834 216.925 106.046 216.161C104.843 215.439 103.523 214.934 102.145 214.67C101.524 214.992 98.5819 215.347 98.9144 216.738Z" fill="#191919"/>
<path d="M61.3162 130.754C56.9023 120.92 46.6898 107.672 34.2878 108.057C29.3242 108.21 30.3339 113.235 31.9325 116.313C47.8933 147.046 30.3303 161.199 26.4208 181.701C25.1011 188.671 25.106 195.828 26.4353 202.796C26.9863 204.508 27.3767 206.268 27.6015 208.052C27.7829 209.906 25.344 211.21 23.9443 212.296C20.6151 214.891 17.354 217.667 13.9784 220.207C12.2919 221.474 10.7647 223.049 9.38426 224.156C9.0773 224.315 9.55731 225.239 9.86427 225.08C13.9688 222.494 20.755 217.283 24.5897 214.306C26.7827 212.604 30.2003 211.176 29.6035 207.404C29.422 205.55 28.625 204.015 28.4364 202.147C27.7944 198.778 27.5854 195.34 27.8144 191.918C28.9936 174.118 37.1106 166.192 40.7781 147.671C42.3128 146.874 44.6669 148.388 46.5138 147.429C47.1294 147.109 41.6853 145.636 41.0612 145.96C41.3831 134.515 41.2164 129.816 34.2355 115.511C33.7794 114.574 32.9566 113.048 33.5656 111.961C34.316 110.4 36.8142 111.446 38.0547 111.579C40.9116 112.407 43.6437 113.618 46.1767 115.177C57.2991 122.581 62.6713 137.011 64.3986 150.264C65.4974 158.634 65.8505 167.131 67.2658 175.347C67.3101 175.575 67.4382 175.779 67.625 175.919C67.8117 176.058 68.0437 176.123 68.2756 176.1C68.5075 176.077 68.7226 175.969 68.8788 175.796C69.035 175.623 69.1211 175.398 69.1203 175.165C68.7173 169.124 68.2171 163.47 67.6538 157.12C71.7987 160.131 73.6881 167.709 76.8019 170.394C77.0578 167.135 75.1566 164.216 73.4105 161.604C72.6134 160.07 67.2717 155.804 67.4082 154.562C67.4115 153.68 67.3457 152.799 67.2114 151.928C65.554 144.184 64.1585 137.09 61.3162 130.754Z" fill="#191919"/>
<path d="M42.2848 126.561C42.741 125.935 42.7283 125.16 42.8775 124.692C43.1211 122.521 42.8676 120.323 42.1362 118.265C41.4048 116.206 40.2145 114.341 38.6557 112.811C38.029 112.355 37.5737 112.983 37.8934 113.599C39.5512 115.284 40.6647 117.428 41.0896 119.753C41.1007 120.529 41.3452 126.265 41.8133 126.412C41.8332 126.454 41.8615 126.491 41.8965 126.522C41.9315 126.552 41.9724 126.575 42.0166 126.589C42.0608 126.603 42.1075 126.608 42.1536 126.603C42.1998 126.598 42.2444 126.584 42.2848 126.561Z" fill="#191919"/>
<path d="M100.03 79.7632C106.4 85.6163 107.269 83.6967 136.654 111.155C137.454 111.904 138.228 112.682 139.307 112.511C139.228 111.55 138.928 110.62 138.431 109.794C137.935 108.967 137.254 108.266 136.442 107.746C125.891 97.205 113.934 86.2183 100.79 78.9703C100.166 78.5192 99.4017 79.3079 100.03 79.7632Z" fill="#191919"/>
<path d="M132.054 53.3634C138.091 62.7324 143.311 72.5369 149.093 82.4194C151.554 86.6196 151.076 80.218 149.81 78.5306C144.846 69.6069 139.432 60.941 133.589 52.5664C133.47 52.3894 133.289 52.2626 133.082 52.21C132.875 52.1574 132.656 52.1827 132.467 52.2812C132.277 52.3796 132.13 52.5442 132.054 52.7438C131.978 52.9433 131.978 53.1639 132.054 53.3634Z" fill="#191919"/>
<path d="M124.187 166.089C124.887 167.436 140.933 178.414 127.314 187.912C115.263 196.397 102.746 204.199 89.8211 211.282C89.3171 211.651 88.7366 211.903 88.1224 212.019C87.5081 212.135 86.8757 212.112 86.2716 211.951C83.319 211.536 84.2049 208.727 84.6373 206.549C85.2428 205.03 85.7345 203.469 86.1083 201.877C86.4042 200.942 85.0026 200.502 84.5446 201.126C82.9256 203.542 81.954 206.334 81.7229 209.234C81.6947 209.856 81.7987 210.476 82.0281 211.054C82.2575 211.632 82.607 212.155 83.0536 212.588C83.5002 213.021 84.0336 213.355 84.6186 213.566C85.2036 213.778 85.8269 213.863 86.4472 213.815C90.2768 213.756 94.5498 210.723 104.925 205.001C111.006 201.646 117.089 197.571 122.902 193.716C130.474 188.701 140.377 181.087 132.329 171.236C130.344 168.954 128.01 167.001 125.415 165.447C124.948 165.3 124.32 164.844 124.172 165.311C123.867 165.474 123.721 165.942 124.187 166.089Z" fill="#191919"/>
<path d="M135.717 189.02C138.102 192.861 140.216 197.641 139.328 201.993C138.344 206.822 133.879 208.799 130.002 211.135C124.086 214.997 117.859 218.362 111.387 221.194C105.541 223.488 93.0398 225.938 95.9568 216.312C96.0983 215.842 95.4768 215.387 95.0215 216.016C93.9659 217.735 92.7533 219.928 93.8728 222.084C95.8029 226.551 102.626 225.443 106.168 224.687C114.557 222.891 121.967 218.978 129.432 214.553C133.62 212.073 138.989 209.607 141.071 204.611C143.335 199.157 140.894 192.98 137.107 188.698C136.014 188.086 135.398 188.406 135.717 189.02Z" fill="#191919"/>
<path d="M134.427 215.102C138.18 217.062 138.242 222.473 135.824 225.318C130.401 231.703 118.409 234.118 110.363 234.243C108.349 234.118 105.872 234.627 103.844 233.731C103.389 233.643 102.966 233.436 102.617 233.131C102.268 232.826 102.006 232.435 101.857 231.996C101.709 231.557 101.679 231.087 101.771 230.633C101.863 230.179 102.074 229.757 102.382 229.411C102.838 228.784 102.358 227.86 101.742 228.18C98.7114 229.056 98.785 234.189 102.785 235.454C105.598 236.7 113.066 235.975 116.126 235.559C120.851 235.056 125.451 233.726 129.715 231.628C133.409 229.71 137.235 227.318 138.742 223.424C139.473 221.616 139.479 219.597 138.759 217.785C138.039 215.973 136.649 214.509 134.877 213.696C134.415 214.327 133.958 214.954 134.427 215.102Z" fill="#191919"/>
<path d="M105.003 229.193C105.937 229.49 107.335 229.931 107.497 230.243C109.526 231.139 110.327 232.682 110.93 231.587C111.386 230.96 110.12 229.273 109.029 228.677C108.401 228.222 107.158 228.085 106.223 227.789C105.914 227.95 104.369 227.972 104.376 228.748C104.523 228.969 104.746 229.128 105.003 229.193Z" fill="#191919"/>
</svg>
