<svg width="15" height="18" viewBox="0 0 15 18" fill="none" xmlns="http://www.w3.org/2000/svg">
<g id="Group 46">
<path id="Vector" d="M13.3545 17.4835H11.4467C11.2443 17.4835 11.0502 17.414 10.9071 17.2903C10.764 17.1665 10.6836 16.9987 10.6836 16.8238C10.6836 16.6488 10.764 16.481 10.9071 16.3572C11.0502 16.2335 11.2443 16.164 11.4467 16.164H12.5914V5.29453L9.00477 1.336H1.52623V16.1805H8.04706C8.24945 16.1805 8.44355 16.25 8.58666 16.3737C8.72978 16.4975 8.81017 16.6653 8.81017 16.8402C8.81017 17.0152 8.72978 17.183 8.58666 17.3068C8.44355 17.4305 8.24945 17.5 8.04706 17.5H0.763116C0.560725 17.5 0.366624 17.4305 0.223512 17.3068C0.0803996 17.183 0 17.0152 0 16.8402V0.659756C0 0.484778 0.0803996 0.316966 0.223512 0.193238C0.366624 0.0695104 0.560725 7.14933e-07 0.763116 7.14933e-07H9.37488C9.49111 -0.000147202 9.60584 0.0226593 9.71031 0.0666799C9.81479 0.110701 9.90626 0.174772 9.97774 0.254006L13.9574 4.66117C14.0616 4.77722 14.118 4.92002 14.1176 5.06692V16.8238C14.1176 16.9987 14.0372 17.1665 13.8941 17.2903C13.751 17.414 13.5569 17.4835 13.3545 17.4835Z" fill="#3A3AF4"/>
<path id="Vector_2" d="M9.0283 10.6354C8.92605 10.6359 8.82468 10.6207 8.73002 10.5906C8.63536 10.5605 8.54926 10.5161 8.47666 10.4601L7.05873 9.35629L5.6408 10.4601C5.56861 10.5162 5.48291 10.5608 5.38859 10.5912C5.29428 10.6216 5.19319 10.6373 5.0911 10.6373C4.98902 10.6373 4.88793 10.6216 4.79361 10.5912C4.6993 10.5608 4.6136 10.5162 4.54141 10.4601C4.46922 10.4039 4.41196 10.3372 4.3729 10.2637C4.33383 10.1903 4.31372 10.1116 4.31372 10.0322C4.31372 9.95269 4.33383 9.874 4.3729 9.80058C4.41196 9.72716 4.46922 9.66045 4.54141 9.60426L6.51098 8.06807C6.65655 7.95542 6.85347 7.8922 7.05873 7.8922C7.26399 7.8922 7.46091 7.95542 7.60648 8.06807L9.57605 9.60124C9.64829 9.65741 9.70559 9.72411 9.74469 9.79753C9.78379 9.87095 9.80392 9.94965 9.80392 10.0291C9.80392 10.1086 9.78379 10.1873 9.74469 10.2607C9.70559 10.3342 9.64829 10.4009 9.57605 10.457C9.43101 10.5706 9.23403 10.6348 9.0283 10.6354Z" fill="#3A3AF4"/>
<path id="Vector_3" d="M7.05885 14.7549C6.85084 14.7549 6.65134 14.6859 6.50426 14.5629C6.35717 14.4399 6.27454 14.2731 6.27454 14.0992V8.54798C6.27454 8.37405 6.35717 8.20725 6.50426 8.08427C6.65134 7.96129 6.85084 7.8922 7.05885 7.8922C7.26686 7.8922 7.46636 7.96129 7.61344 8.08427C7.76053 8.20725 7.84316 8.37405 7.84316 8.54798V14.0992C7.84316 14.2731 7.76053 14.4399 7.61344 14.5629C7.46636 14.6859 7.26686 14.7549 7.05885 14.7549Z" fill="#3A3AF4"/>
</g>
</svg>
