<svg width="155" height="44" viewBox="0 0 155 44" fill="none" xmlns="http://www.w3.org/2000/svg">
<path d="M52.4815 14.5485C52.4815 22.403 60.9251 23.4634 60.9251 29.1187C60.9251 31.0823 60.0611 31.7892 58.6866 31.7892C57.312 31.7892 56.448 31.0823 56.448 29.1187V27.155H52.3636V28.8437C52.3636 33.2423 54.5629 35.7557 58.8044 35.7557C63.0458 35.7557 65.2451 33.2423 65.2451 28.8437C65.2451 20.9892 56.8015 19.9288 56.8015 14.2736C56.8015 12.3099 57.5869 11.5637 58.9615 11.5637C60.336 11.5637 61.1215 12.3099 61.1215 14.2736V15.4125H65.2058V14.5485C65.2058 10.1499 63.0458 7.63647 58.8436 7.63647C54.6415 7.63647 52.4815 10.1499 52.4815 14.5485Z" fill="#8896AB"/>
<path d="M71.4968 35.4416H75.8168V26.3303L81.2757 7.95065H77.1521L73.8532 20.4787L70.5543 7.95065H66.0379L71.4968 26.3303V35.4416Z" fill="#8896AB"/>
<path d="M88.9922 7.95065H82.9835V35.4416H86.7537V16.0016L89.974 35.4416H94.0584L97.0431 15.7267V35.4416H101.127V7.95065H95.1188L92.1733 27.4692L88.9922 7.95065Z" fill="#8896AB"/>
<path d="M103.013 11.8779H107.53V35.4416H111.85V11.8779H116.366V7.95065H103.013V11.8779Z" fill="#8896AB"/>
<path d="M131.7 35.4416C131.268 34.4205 131.229 33.4387 131.229 32.1034V27.8619C131.229 24.995 130.522 22.9136 128.362 22.0103C130.286 21.107 131.189 19.2612 131.189 16.4336V14.2736C131.189 10.0321 129.265 7.95065 124.788 7.95065H118.269V35.4416H122.589V24.2488H124.081C126.045 24.2488 126.909 25.1914 126.909 27.7441V32.0641C126.909 34.3027 127.066 34.7347 127.301 35.4416H131.7ZM124.67 11.8779C126.202 11.8779 126.869 12.7419 126.869 14.7056V17.4154C126.869 19.6147 125.887 20.3216 124.277 20.3216H122.589V11.8779H124.67Z" fill="#8896AB"/>
<path d="M134.07 35.4416H138.39V7.95065H134.07V35.4416Z" fill="#8896AB"/>
<path d="M149.992 25.1914V29.1187C149.992 31.0823 149.128 31.7892 147.753 31.7892C146.379 31.7892 145.515 31.0823 145.515 29.1187V14.2736C145.515 12.3099 146.379 11.5637 147.753 11.5637C149.128 11.5637 149.992 12.3099 149.992 14.2736V17.219H154.076V14.5485C154.076 10.1499 151.877 7.63647 147.636 7.63647C143.394 7.63647 141.195 10.1499 141.195 14.5485V28.8437C141.195 33.2423 143.394 35.7557 147.636 35.7557C151.877 35.7557 154.076 33.2423 154.076 28.8437V25.1914H149.992Z" fill="#8896AB"/>
<g clip-path="url(#clip0_1_7952)">
<path fill-rule="evenodd" clip-rule="evenodd" d="M14.8435 13.8352L12.4828 17.9164L10.2367 14.0202L12.5855 9.93897H28.9925L32.4762 3.89649H9.09892L4.49219 11.8871C7.94798 17.8572 11.3984 23.8272 14.8435 29.7973H21.8108C20.0609 26.7682 18.3119 23.7397 16.564 20.7116L16.0795 19.8733H32.0475L38.9151 31.7645L32.0475 43.6366H6.85283L0.0557794 31.65L3.469 25.722L5.72978 29.6167L4.50689 31.7498L9.11361 39.7404H29.7882L34.4096 31.7498L29.8029 23.7592H22.8355C24.3134 26.3332 25.7921 28.9067 27.2719 31.4797L27.4393 31.7454L26.3163 33.6935H12.5973C8.44467 26.5128 4.29742 19.3374 0.155561 12.1675L-6.10352e-05 11.8827L6.85283 -0.00854492H39.241L31.2562 13.8352H14.8435Z" fill="#8896AB"/>
</g>
<defs>
<clipPath id="clip0_1_7952">
<rect width="39.2425" height="43.6364" fill="white"/>
</clipPath>
</defs>
</svg>
