<svg width="402" height="402" viewBox="0 0 402 402" fill="none" xmlns="http://www.w3.org/2000/svg">
<path d="M91.1848 318.931H88.7969V370.435H91.1848V318.931Z" fill="#263238" stroke="#263238" stroke-width="0.804" stroke-linecap="round" stroke-linejoin="round"/>
<path d="M155.706 369.365H95.7031V373.345H155.706V369.365Z" fill="#263238" stroke="#263238" stroke-width="0.804" stroke-linecap="round" stroke-linejoin="round"/>
<path d="M346.527 41.0039H67.5391V240.396H346.527V41.0039Z" fill="#263238" stroke="#263238" stroke-width="0.804" stroke-miterlimit="10"/>
<path d="M342.965 34.9739H63.9766V234.366H342.965V34.9739Z" fill="white" stroke="#263238" stroke-width="0.804" stroke-miterlimit="10"/>
<path d="M342.965 34.9739H63.9766V60.7019H342.965V34.9739Z" fill="#ADADAD" stroke="#263238" stroke-width="0.804" stroke-miterlimit="10"/>
<path d="M92.0764 34.9739H63.9766V60.7019H92.0764V34.9739Z" fill="#3b82f6" stroke="#263238" stroke-width="0.804" stroke-miterlimit="10"/>
<path d="M326.211 49.5103C326.211 48.976 326.053 48.4537 325.756 48.0094C325.459 47.5652 325.037 47.2189 324.544 47.0145C324.05 46.81 323.507 46.7565 322.983 46.8607C322.459 46.965 321.978 47.2223 321.6 47.6001C321.222 47.9779 320.965 48.4592 320.86 48.9833C320.756 49.5073 320.81 50.0505 321.014 50.5441C321.219 51.0377 321.565 51.4596 322.009 51.7564C322.453 52.0533 322.976 52.2117 323.51 52.2117C324.226 52.2096 324.912 51.9243 325.418 51.4181C325.924 50.912 326.209 50.2261 326.211 49.5103Z" fill="#263238"/>
<path d="M306.639 52.2117C308.131 52.2117 309.34 51.0022 309.34 49.5103C309.34 48.0183 308.131 46.8088 306.639 46.8088C305.147 46.8088 303.938 48.0183 303.938 49.5103C303.938 51.0022 305.147 52.2117 306.639 52.2117Z" fill="#263238"/>
<path d="M289.772 52.2117C291.264 52.2117 292.473 51.0022 292.473 49.5103C292.473 48.0183 291.264 46.8088 289.772 46.8088C288.28 46.8088 287.07 48.0183 287.07 49.5103C287.07 51.0022 288.28 52.2117 289.772 52.2117Z" fill="#263238"/>
<path d="M327.552 73.1799H108.27V95.4427H327.552V73.1799Z" stroke="#263238" stroke-width="0.804" stroke-miterlimit="10"/>
<path d="M327.552 102.196H108.27V124.459H327.552V102.196Z" stroke="#263238" stroke-width="0.804" stroke-miterlimit="10"/>
<path d="M74.9728 87.7485V81.6863H73.7266V80.9949H76.9426V81.6863H75.7285V87.7485H74.9728Z" fill="#263238"/>
<path d="M77.4336 82.6269C77.4336 81.5977 77.9482 80.9304 78.9773 80.9304C80.0064 80.9304 80.529 81.5977 80.529 82.6269V86.1162C80.529 87.1373 80.0225 87.8127 78.9773 87.8127C77.9321 87.8127 77.4336 87.1373 77.4336 86.1162V82.6269ZM78.1733 86.1564C78.1733 86.7755 78.4386 87.1293 78.9773 87.1293C79.516 87.1293 79.7813 86.7755 79.7813 86.1564V82.5867C79.7813 81.9837 79.524 81.6138 78.9773 81.6138C78.4306 81.6138 78.1733 81.9837 78.1733 82.5867V86.1564Z" fill="#263238"/>
<path d="M76.9116 112.632V112.817H76.196V112.56C76.196 111.957 75.9709 111.595 75.392 111.595C74.8131 111.595 74.588 111.957 74.588 112.552C74.588 114.063 76.8553 114.208 76.8553 116.114C76.8553 117.135 76.3649 117.802 75.3357 117.802C74.3066 117.802 73.8242 117.135 73.8242 116.114V115.776H74.5237V116.202C74.5237 116.805 74.7729 117.167 75.3277 117.167C75.8825 117.167 76.1317 116.805 76.1317 116.202C76.1317 114.691 73.8725 114.594 73.8725 112.648C73.8725 111.611 74.3549 110.96 75.3679 110.96C76.3809 110.96 76.9116 111.611 76.9116 112.632Z" fill="#263238"/>
<path d="M78.2971 116.17C78.2971 116.781 78.5383 117.151 79.1011 117.151C79.6639 117.151 79.9051 116.781 79.9051 116.17V111.016H80.6127V116.138C80.6127 117.159 80.1383 117.842 79.1011 117.842C78.064 117.842 77.5977 117.159 77.5977 116.138V111.016H78.3373L78.2971 116.17Z" fill="#263238"/>
<path d="M82.813 111.016C83.8662 111.016 84.2763 111.515 84.2763 112.512V112.825C84.2763 113.541 84.0753 113.983 83.4723 114.168C84.1235 114.353 84.3727 114.876 84.3727 115.615V116.186C84.4096 116.399 84.3961 116.618 84.3331 116.825C84.2702 117.032 84.1596 117.221 84.0102 117.377C83.8609 117.534 83.677 117.653 83.4732 117.725C83.2695 117.798 83.0516 117.821 82.8371 117.794H81.2773V111.049L82.813 111.016ZM82.6281 113.879C83.223 113.879 83.5366 113.686 83.5366 112.978V112.56C83.5366 111.965 83.3356 111.676 82.7889 111.676H82.0492V113.854L82.6281 113.879ZM82.8532 117.095C83.3999 117.095 83.6572 116.805 83.6572 116.178V115.583C83.6572 114.827 83.3597 114.578 82.7165 114.578H82.0572V117.095H82.8532Z" fill="#263238"/>
<path d="M84.9062 117.078H85.2841C85.7746 117.078 86.0881 116.821 86.0881 116.138V111.008H86.8359V116.09C86.8359 117.352 86.2087 117.746 85.4047 117.762C85.2468 117.774 85.0883 117.774 84.9304 117.762L84.9062 117.078Z" fill="#263238"/>
<path d="M89.9586 113.999V114.675H88.3024V117.087H90.3285V117.77H87.5547V111.024H90.3285V111.708H88.3024V114.007L89.9586 113.999Z" fill="#263238"/>
<path d="M94.0046 112.64V113.251H93.265V112.608C93.265 111.997 93.0238 111.627 92.461 111.627C91.8982 111.627 91.657 111.997 91.657 112.608V116.17C91.657 116.781 91.9062 117.151 92.461 117.151C93.0157 117.151 93.265 116.781 93.265 116.17V115.293H93.9725V116.097C93.9725 117.119 93.4901 117.794 92.4529 117.794C91.4158 117.794 90.9414 117.119 90.9414 116.097V112.64C90.9414 111.619 91.4238 110.944 92.4529 110.944C93.482 110.944 94.0046 111.619 94.0046 112.64Z" fill="#263238"/>
<path d="M95.6759 117.762V111.7H94.4297V111.016H97.6457V111.7H96.3995V117.762H95.6759Z" fill="#263238"/>
<path d="M75.5044 174.259C76.5576 174.259 76.9677 174.765 76.9677 175.754V176.076C76.9677 176.791 76.7667 177.234 76.1637 177.419C76.8149 177.595 77.0722 178.118 77.0722 178.858V179.429C77.1076 179.642 77.0927 179.861 77.0287 180.068C76.9647 180.274 76.8533 180.463 76.7034 180.619C76.5535 180.776 76.3693 180.895 76.1653 180.967C75.9613 181.039 75.7433 181.063 75.5285 181.037H73.9688V174.283L75.5044 174.259ZM75.3195 177.129C75.9225 177.129 76.228 176.936 76.228 176.229V175.835C76.228 175.24 76.027 174.95 75.4883 174.95H74.7728V177.129H75.3195ZM75.5446 180.345C76.0913 180.345 76.3486 180.056 76.3486 179.429V178.826C76.3486 178.078 76.0511 177.829 75.4079 177.829H74.7728V180.345H75.5446Z" fill="#263238"/>
<path d="M77.7188 175.891C77.7188 174.862 78.2253 174.194 79.2624 174.194C80.2996 174.194 80.8141 174.862 80.8141 175.891V179.38C80.8454 179.598 80.8279 179.82 80.7631 180.03C80.6983 180.24 80.5877 180.433 80.4393 180.595C80.2909 180.757 80.1084 180.885 79.9049 180.968C79.7014 181.051 79.482 181.088 79.2624 181.077C78.2253 181.077 77.7188 180.401 77.7188 179.38V175.891ZM78.4584 179.42C78.4584 180.039 78.7237 180.393 79.2624 180.393C79.8011 180.393 80.0664 180.039 80.0664 179.42V175.851C80.0664 175.248 79.8172 174.878 79.2624 174.878C78.7077 174.878 78.4584 175.248 78.4584 175.851V179.42Z" fill="#263238"/>
<path d="M83.1119 174.259C84.1571 174.259 84.6395 174.902 84.6395 175.939V179.34C84.6395 180.377 84.1571 181.012 83.1119 181.012H81.5039V174.259H83.1119ZM83.1119 180.329C83.6586 180.329 83.9159 179.991 83.9159 179.372V175.899C83.9159 175.288 83.6586 174.95 83.1119 174.95H82.3079V180.329H83.1119Z" fill="#263238"/>
<path d="M86.3999 178.592L84.9688 174.259H85.7728L86.826 177.579L87.8873 174.259H88.6028L87.1637 178.592V181.004H86.424L86.3999 178.592Z" fill="#263238"/>
<path d="M327.552 133.231H108.27V223.641H327.552V133.231Z" stroke="#263238" stroke-width="0.804" stroke-miterlimit="10"/>
<path d="M112.32 148.073H321.481" stroke="#263238" stroke-width="0.804" stroke-miterlimit="10"/>
<path d="M117.034 140.419V141.11H115.482V144.028H114.727V137.275H117.388V137.966H115.458V140.419H117.034Z" fill="#263238"/>
<path d="M117.949 138.907C117.949 137.878 118.464 137.21 119.493 137.21C120.522 137.21 121.045 137.878 121.045 138.907V142.396C121.045 143.417 120.538 144.093 119.493 144.093C118.448 144.093 117.949 143.417 117.949 142.396V138.907ZM118.697 142.436C118.697 143.056 118.954 143.409 119.501 143.409C120.048 143.409 120.305 143.056 120.305 142.436V138.867C120.305 138.264 120.048 137.894 119.501 137.894C118.954 137.894 118.697 138.264 118.697 138.867V142.436Z" fill="#263238"/>
<path d="M122.425 144.028H121.75V137.275H122.707L124.267 142.155V137.275H124.934V144.028H124.13L122.401 138.569L122.425 144.028Z" fill="#263238"/>
<path d="M126.68 144.028V137.966H125.426V137.275H128.642V137.966H127.396V144.028H126.68Z" fill="#263238"/>
<path d="M163.277 138.505C162.99 138.674 162.668 138.773 162.336 138.794V138.175C162.603 138.182 162.865 138.096 163.076 137.932C163.287 137.768 163.434 137.536 163.494 137.275H164.016V144.028H163.277V138.505Z" fill="#263238"/>
<path d="M168.192 138.915C168.192 140.949 165.909 141.689 165.901 143.24V143.345H168.12V144.028H165.161V143.449C165.161 141.271 167.444 140.845 167.444 138.947C167.444 138.256 167.211 137.886 166.64 137.886C166.069 137.886 165.836 138.28 165.836 138.875V139.478H165.137V138.923C165.137 137.894 165.603 137.21 166.648 137.21C167.693 137.21 168.192 137.886 168.192 138.915Z" fill="#263238"/>
<path d="M206.308 143.666L206.236 143.875H202.449L202.538 143.666C202.793 143.675 203.047 143.645 203.293 143.578C203.465 143.533 203.619 143.438 203.736 143.305C203.956 143.005 204.119 142.667 204.218 142.308L205.826 137.564C205.938 137.279 206.006 136.978 206.027 136.672C206.03 136.578 205.998 136.487 205.939 136.414C205.868 136.336 205.776 136.28 205.673 136.254C205.441 136.204 205.203 136.185 204.966 136.197L205.046 135.98H208.608L208.527 136.197C208.31 136.187 208.092 136.214 207.884 136.278C207.703 136.346 207.543 136.459 207.418 136.607C207.244 136.909 207.106 137.23 207.008 137.564L205.4 142.308C205.299 142.567 205.226 142.837 205.183 143.112C205.183 143.202 205.214 143.291 205.271 143.361C205.343 143.437 205.435 143.49 205.537 143.514C205.788 143.59 206.047 143.641 206.308 143.666Z" fill="#263238"/>
<path d="M224.317 137.572V141.648C224.321 141.977 224.25 142.302 224.111 142.6C223.972 142.898 223.767 143.161 223.513 143.369C222.978 143.837 222.286 144.086 221.576 144.068C221.11 144.076 220.649 143.98 220.225 143.787C219.823 143.585 219.478 143.287 219.22 142.919C218.95 142.55 218.806 142.105 218.81 141.648V137.572H218.327C218.226 137.584 218.124 137.561 218.038 137.508C218.009 137.488 217.986 137.462 217.97 137.431C217.955 137.4 217.948 137.366 217.949 137.331C217.95 137.296 217.958 137.261 217.973 137.229C217.988 137.197 218.011 137.168 218.038 137.146C218.127 137.1 218.227 137.08 218.327 137.09H220.434C220.535 137.078 220.637 137.101 220.723 137.154C220.751 137.174 220.774 137.201 220.79 137.231C220.806 137.262 220.815 137.296 220.815 137.331C220.815 137.366 220.806 137.4 220.79 137.43C220.774 137.461 220.751 137.488 220.723 137.508C220.637 137.561 220.535 137.584 220.434 137.572H219.381V141.648C219.379 141.91 219.435 142.168 219.547 142.405C219.658 142.642 219.821 142.85 220.024 143.015C220.445 143.388 220.99 143.588 221.551 143.578C221.906 143.582 222.258 143.508 222.581 143.361C222.899 143.203 223.174 142.972 223.385 142.686C223.616 142.389 223.74 142.024 223.738 141.648V137.572H222.685C222.584 137.584 222.482 137.561 222.396 137.508C222.367 137.488 222.344 137.461 222.329 137.43C222.313 137.4 222.304 137.366 222.304 137.331C222.304 137.296 222.313 137.262 222.329 137.231C222.344 137.201 222.367 137.174 222.396 137.154C222.482 137.101 222.584 137.078 222.685 137.09H224.792C224.892 137.078 224.995 137.101 225.081 137.154C225.108 137.175 225.129 137.202 225.144 137.233C225.159 137.263 225.167 137.297 225.167 137.331C225.167 137.365 225.159 137.399 225.144 137.429C225.129 137.46 225.108 137.487 225.081 137.508C224.995 137.561 224.892 137.584 224.792 137.572H224.317Z" fill="#263238"/>
<path d="M198.025 137.275V144.028H197.27V137.275H198.025Z" fill="#263238"/>
<path d="M214.671 137.275V144.028H213.867V137.275H214.671Z" fill="#263238"/>
<path d="M230.749 137.275V144.028H229.945V137.275H230.749Z" fill="#263238"/>
<path d="M151.843 142.75L154.866 139.606H148.828L151.843 142.75Z" fill="#263238"/>
<path d="M178.113 142.75L181.128 139.606H175.09L178.113 142.75Z" fill="#263238"/>
<path d="M192.906 141.11C192.848 140.936 192.758 140.776 192.64 140.636C192.526 140.49 192.387 140.364 192.23 140.266C192.063 140.161 191.885 140.075 191.7 140.008C192.012 139.849 192.271 139.604 192.447 139.301C192.6 139.017 192.677 138.699 192.672 138.376C192.671 138.183 192.641 137.991 192.584 137.805C192.519 137.615 192.424 137.436 192.303 137.275C192.166 137.096 192.004 136.939 191.82 136.809C191.612 136.662 191.381 136.551 191.137 136.479C190.683 136.346 190.211 136.286 189.738 136.302H186.441V137.371H187.036V142.999H186.441V144.069H189.874H190.341L190.719 144.02L191.04 143.956C191.378 143.875 191.698 143.736 191.989 143.546C192.225 143.397 192.432 143.206 192.6 142.983C192.745 142.797 192.852 142.584 192.914 142.356C192.972 142.158 193.002 141.952 193.002 141.745C193.009 141.529 192.976 141.314 192.906 141.11ZM188.459 137.484H189.633C189.805 137.474 189.976 137.474 190.148 137.484L190.518 137.548C190.731 137.603 190.919 137.731 191.048 137.91C191.154 138.073 191.21 138.263 191.209 138.457C191.211 138.645 191.164 138.831 191.072 138.995C190.959 139.161 190.8 139.289 190.614 139.365C190.333 139.451 190.04 139.49 189.746 139.478H188.459V137.484ZM191.482 142.083C191.442 142.194 191.383 142.298 191.306 142.388C191.213 142.487 191.104 142.568 190.984 142.629C190.83 142.71 190.665 142.767 190.494 142.798C190.34 142.835 190.184 142.859 190.027 142.871C189.85 142.871 189.641 142.871 189.392 142.871H188.459V140.7H189.81C190.003 140.69 190.196 140.69 190.389 140.7C190.526 140.711 190.661 140.738 190.791 140.78C191.011 140.84 191.208 140.966 191.354 141.142C191.473 141.308 191.535 141.508 191.531 141.713C191.532 141.835 191.516 141.957 191.482 142.075V142.083Z" fill="#263238"/>
<path d="M236.268 137.218C236.227 137.041 236.127 136.882 235.985 136.769C235.843 136.655 235.666 136.593 235.484 136.593C235.302 136.593 235.125 136.655 234.982 136.769C234.84 136.882 234.74 137.041 234.7 137.218C234.673 137.336 234.673 137.458 234.7 137.576C234.727 137.694 234.78 137.804 234.855 137.898C234.93 137.993 235.026 138.069 235.135 138.121C235.244 138.174 235.363 138.201 235.484 138.201C235.604 138.201 235.724 138.174 235.832 138.121C235.941 138.069 236.037 137.993 236.112 137.898C236.187 137.804 236.241 137.694 236.267 137.576C236.294 137.458 236.294 137.336 236.268 137.218Z" stroke="#263238" stroke-width="0.804" stroke-miterlimit="10"/>
<path d="M238.145 137.532H249.923" stroke="#263238" stroke-width="0.804" stroke-miterlimit="10"/>
<path d="M236.264 140.7C236.264 140.541 236.217 140.386 236.129 140.253C236.04 140.121 235.915 140.018 235.768 139.957C235.621 139.896 235.459 139.88 235.303 139.911C235.147 139.942 235.004 140.019 234.892 140.131C234.779 140.244 234.703 140.387 234.672 140.543C234.641 140.699 234.657 140.861 234.717 141.008C234.778 141.155 234.881 141.28 235.014 141.368C235.146 141.457 235.301 141.504 235.46 141.504C235.673 141.504 235.878 141.419 236.029 141.269C236.18 141.118 236.264 140.913 236.264 140.7Z" stroke="#263238" stroke-width="0.804" stroke-miterlimit="10"/>
<path d="M238.145 140.99H249.923" stroke="#263238" stroke-width="0.804" stroke-miterlimit="10"/>
<path d="M236.268 144.125C236.227 143.947 236.127 143.789 235.985 143.675C235.843 143.561 235.666 143.5 235.484 143.5C235.302 143.5 235.125 143.561 234.982 143.675C234.84 143.789 234.74 143.947 234.7 144.125C234.673 144.243 234.673 144.365 234.7 144.483C234.727 144.6 234.78 144.71 234.855 144.805C234.93 144.899 235.026 144.976 235.135 145.028C235.244 145.08 235.363 145.108 235.484 145.108C235.604 145.108 235.724 145.08 235.832 145.028C235.941 144.976 236.037 144.899 236.112 144.805C236.187 144.71 236.241 144.6 236.267 144.483C236.294 144.365 236.294 144.243 236.268 144.125Z" stroke="#263238" stroke-width="0.804" stroke-miterlimit="10"/>
<path d="M238.145 144.438H249.923" stroke="#263238" stroke-width="0.804" stroke-miterlimit="10"/>
<path d="M256.1 137.219C256.1 137.06 256.053 136.904 255.965 136.772C255.876 136.64 255.751 136.537 255.604 136.476C255.457 136.415 255.295 136.399 255.139 136.43C254.983 136.461 254.84 136.538 254.728 136.65C254.615 136.762 254.539 136.906 254.508 137.062C254.477 137.218 254.493 137.379 254.553 137.526C254.614 137.673 254.717 137.799 254.85 137.887C254.982 137.975 255.137 138.023 255.296 138.023C255.509 138.023 255.714 137.938 255.865 137.787C256.015 137.636 256.1 137.432 256.1 137.219Z" stroke="#263238" stroke-width="0.804" stroke-miterlimit="10"/>
<path d="M257.98 137.532H269.751" stroke="#263238" stroke-width="0.804" stroke-miterlimit="10"/>
<path d="M256.1 140.7C256.126 140.582 256.126 140.46 256.1 140.342C256.073 140.224 256.02 140.114 255.944 140.02C255.869 139.925 255.773 139.849 255.664 139.797C255.556 139.744 255.436 139.717 255.316 139.717C255.195 139.717 255.076 139.744 254.967 139.797C254.858 139.849 254.763 139.925 254.687 140.02C254.612 140.114 254.559 140.224 254.532 140.342C254.505 140.46 254.505 140.582 254.532 140.7C254.572 140.878 254.672 141.036 254.814 141.15C254.957 141.263 255.134 141.325 255.316 141.325C255.498 141.325 255.675 141.263 255.817 141.15C255.96 141.036 256.059 140.878 256.1 140.7Z" stroke="#263238" stroke-width="0.804" stroke-miterlimit="10"/>
<path d="M257.98 140.99H269.751" stroke="#263238" stroke-width="0.804" stroke-miterlimit="10"/>
<path d="M256.1 144.125C256.1 143.966 256.053 143.81 255.965 143.678C255.876 143.546 255.751 143.443 255.604 143.382C255.457 143.321 255.295 143.305 255.139 143.336C254.983 143.367 254.84 143.444 254.728 143.556C254.615 143.669 254.539 143.812 254.508 143.968C254.477 144.124 254.493 144.286 254.553 144.432C254.614 144.579 254.717 144.705 254.85 144.793C254.982 144.882 255.137 144.929 255.296 144.929C255.509 144.929 255.714 144.844 255.865 144.693C256.015 144.543 256.1 144.338 256.1 144.125Z" stroke="#263238" stroke-width="0.804" stroke-miterlimit="10"/>
<path d="M257.98 144.438H269.751" stroke="#263238" stroke-width="0.804" stroke-miterlimit="10"/>
<path d="M278.3 144.213C277.319 145.267 275.928 145.564 275.189 144.873C274.449 144.181 274.65 142.774 275.631 141.721C276.612 140.668 278.043 140.37 278.742 141.062C279.442 141.753 279.289 143.16 278.3 144.213Z" stroke="#263238" stroke-width="0.804" stroke-miterlimit="10"/>
<path d="M280.535 140.74C281.973 140.74 283.14 139.923 283.14 138.915C283.14 137.907 281.973 137.09 280.535 137.09C279.096 137.09 277.93 137.907 277.93 138.915C277.93 139.923 279.096 140.74 280.535 140.74Z" stroke="#263238" stroke-width="0.804" stroke-miterlimit="10"/>
<path d="M277.191 142.622L280.528 139.172" stroke="#263238" stroke-width="0.804" stroke-miterlimit="10"/>
<path d="M297.48 164.554H319.454" stroke="#263238" stroke-width="0.804" stroke-miterlimit="10"/>
<path d="M232.625 164.554H290.513" stroke="#263238" stroke-width="0.804" stroke-miterlimit="10"/>
<path d="M176.883 164.554H225.662" stroke="#263238" stroke-width="0.804" stroke-miterlimit="10"/>
<path d="M146.871 164.554H172.599" stroke="#263238" stroke-width="0.804" stroke-miterlimit="10"/>
<path d="M114.711 164.554H142.047" stroke="#263238" stroke-width="0.804" stroke-miterlimit="10"/>
<path d="M287.836 176.88H319.457" stroke="#263238" stroke-width="0.804" stroke-miterlimit="10"/>
<path d="M207.973 176.88H282.471" stroke="#263238" stroke-width="0.804" stroke-miterlimit="10"/>
<path d="M146.328 176.88H201" stroke="#263238" stroke-width="0.804" stroke-miterlimit="10"/>
<path d="M114.711 176.88H142.047" stroke="#263238" stroke-width="0.804" stroke-miterlimit="10"/>
<path d="M298.023 189.205H319.458" stroke="#263238" stroke-width="0.804" stroke-miterlimit="10"/>
<path d="M234.234 189.205H292.661" stroke="#263238" stroke-width="0.804" stroke-miterlimit="10"/>
<path d="M191.355 189.205H227.27" stroke="#263238" stroke-width="0.804" stroke-miterlimit="10"/>
<path d="M144.184 189.205H185.461" stroke="#263238" stroke-width="0.804" stroke-miterlimit="10"/>
<path d="M114.711 189.205H139.362" stroke="#263238" stroke-width="0.804" stroke-miterlimit="10"/>
<path d="M312.496 209.579H319.459" stroke="#263238" stroke-width="0.804" stroke-miterlimit="10"/>
<path d="M262.645 209.579H306.061" stroke="#263238" stroke-width="0.804" stroke-miterlimit="10"/>
<path d="M198.328 209.579H256.747" stroke="#263238" stroke-width="0.804" stroke-miterlimit="10"/>
<path d="M180.098 209.579H193.5" stroke="#263238" stroke-width="0.804" stroke-miterlimit="10"/>
<path d="M129.715 209.579H174.739" stroke="#263238" stroke-width="0.804" stroke-miterlimit="10"/>
<path d="M114.711 209.579H124.89" stroke="#263238" stroke-width="0.804" stroke-miterlimit="10"/>
<path d="M188.14 179.026H132.93V240.669H188.14V179.026Z" fill="#263238" stroke="#263238" stroke-width="0.804" stroke-miterlimit="10"/>
<path d="M186 176.341H130.789V237.984H186V176.341Z" fill="white" stroke="#263238" stroke-width="0.804" stroke-miterlimit="10"/>
<path d="M135.613 189.744H180.637" stroke="#263238" stroke-width="0.804" stroke-miterlimit="10"/>
<path d="M135.613 202.069H180.637" stroke="#263238" stroke-width="0.804" stroke-miterlimit="10"/>
<path d="M135.613 214.403H180.637" stroke="#263238" stroke-width="0.804" stroke-miterlimit="10"/>
<path d="M163.478 225.12H151.152V233.16H163.478V225.12Z" fill="#B5B5B5" stroke="#263238" stroke-width="0.804" stroke-miterlimit="10"/>
<path d="M177.95 225.12H165.625V233.16H177.95V225.12Z" stroke="#263238" stroke-width="0.804" stroke-miterlimit="10"/>
<path d="M227.964 199.087C224.59 204.358 222.995 210.571 223.413 216.815C224.257 226.881 230.175 235.307 231.051 239.745C231.927 244.183 227.578 251.733 228.816 253.341C230.054 254.949 236.373 254.868 236.373 254.868C236.373 254.868 246.713 266.124 250.636 266.719C254.56 267.314 261 261.405 261 261.405L268.292 269.654L289.815 253.059C289.815 253.059 284.187 243.918 283.914 241.843C283.641 239.769 291.343 227.629 288.545 210.077C285.747 192.526 269.337 183.996 253.531 184.116C237.724 184.237 227.964 199.087 227.964 199.087Z" fill="white" stroke="#263238" stroke-width="0.804" stroke-linecap="round" stroke-linejoin="round"/>
<path d="M274.035 223.609C274.035 223.609 272.741 220.047 269.404 221.325C266.067 222.604 266.486 227.998 266.486 227.998C266.486 227.998 270.184 226.029 270.337 227.323C270.489 228.618 268.254 229.968 268.254 229.968" stroke="#263238" stroke-width="0.804" stroke-linecap="round" stroke-linejoin="round"/>
<path d="M260.996 261.429L269.141 255.584L264.445 264.846L260.996 261.429Z" fill="#263238" stroke="#263238" stroke-width="0.804" stroke-linecap="round" stroke-linejoin="round"/>
<path d="M288.54 210.102C285.75 192.55 269.34 183.996 253.534 184.116C237.727 184.237 227.967 199.087 227.967 199.087C225.714 202.597 224.234 206.546 223.625 210.672C223.914 210.407 224.252 210.077 224.662 209.651C228.095 206.09 230.966 199.73 238.821 200.896C246.676 202.062 241.53 212.899 243.452 217.233C245.373 221.567 254.748 220.795 256.211 221.317C257.674 221.84 260.006 229.631 262.836 226.841C265.666 224.051 265.039 218.865 268.376 217.418C271.712 215.971 278.08 219.412 278.739 224.943C279.398 230.475 271.664 239.118 271.664 239.118C271.664 239.118 278.056 242.567 284.271 243.017C284.103 242.651 283.981 242.264 283.909 241.868C283.66 239.793 291.338 227.653 288.54 210.102Z" fill="#263238" stroke="#263238" stroke-width="0.804" stroke-linecap="round" stroke-linejoin="round"/>
<path d="M284.398 201.804C284.398 201.804 285.886 190.757 295.912 189.559C305.938 188.361 314.307 205.639 311.67 212.932C309.033 220.224 299.892 225.587 294.264 225.554C288.636 225.522 285.307 209.434 284.398 201.804Z" fill="#263238" stroke="#263238" stroke-width="0.804" stroke-linecap="round" stroke-linejoin="round"/>
<path d="M240.859 254.362C240.859 254.362 246.777 254.008 248.722 246.764" stroke="#263238" stroke-width="0.804" stroke-linecap="round" stroke-linejoin="round"/>
<path d="M236.754 235.749C237.469 237.011 237.622 238.282 237.099 238.571C236.577 238.861 235.58 238.073 234.872 236.802C234.165 235.532 234.004 234.278 234.527 233.98C235.049 233.683 236.046 234.479 236.754 235.749Z" fill="#263238"/>
<path d="M241.938 232.782C243.812 237.212 243.176 241.707 240.523 242.832C237.87 243.958 234.196 241.281 232.322 236.851C230.449 232.421 231.084 227.926 233.737 226.801C236.391 225.675 240.065 228.336 241.938 232.782Z" stroke="#263238" stroke-width="0.804" stroke-linecap="round" stroke-linejoin="round"/>
<path d="M232.323 236.851L228.512 238.997" stroke="#263238" stroke-width="0.804" stroke-linecap="round" stroke-linejoin="round"/>
<path d="M241.297 231.512L265.023 221.671" stroke="#263238" stroke-width="0.804" stroke-linecap="round" stroke-linejoin="round"/>
<path d="M229.941 229.076C229.941 229.076 230.569 225.056 234.605 224.582" stroke="#263238" stroke-width="1.608" stroke-linecap="round" stroke-linejoin="round"/>
<path d="M245.323 336.169L236.375 351.195L162.527 358.222L140.466 353.109C138.988 353.349 137.492 353.457 135.995 353.431C133.117 353.431 116.812 364.301 117.134 365.257C117.455 366.214 118.412 367.501 120.969 365.257C123.525 363.014 125.125 362.701 125.125 362.701C125.125 362.701 118.412 368.779 120.969 368.779C123.525 368.779 128.004 365.563 128.004 365.563C128.004 365.563 124.482 369.398 126.396 369.398C128.309 369.398 135.071 365.257 135.071 365.257C135.071 365.257 141.503 365.901 147.541 366.865C153.579 367.83 161.924 367.187 161.924 367.187C161.924 367.187 230.345 373.362 233.858 373.257C237.372 373.153 256.877 351.204 256.877 351.204L245.323 336.169Z" fill="#263238" stroke="#263238" stroke-width="0.804" stroke-linecap="round" stroke-linejoin="round"/>
<path d="M266.486 276.954C266.486 276.954 261.268 269.638 263.358 266.856C265.449 264.074 287.036 250.486 291.563 251.186C296.089 251.885 298.525 265.111 298.525 265.111C298.525 265.111 312.451 275.209 313.496 293.661C314.541 312.113 306.879 346.597 305.834 354.604C304.788 362.612 304.788 382.109 304.788 382.109H254.997C254.997 382.109 253.606 353.559 253.606 350.753C253.606 347.947 241.071 340.671 242.117 331.248C243.162 321.825 266.84 279.366 266.84 279.366L266.486 276.954Z" fill="#263238" stroke="#263238" stroke-width="0.804" stroke-linecap="round" stroke-linejoin="round"/>
<path d="M292.951 280.781C289.858 280.757 286.795 281.397 283.971 282.659C281.147 283.922 278.627 285.776 276.582 288.098C269.273 296.138 242.114 350.769 242.114 350.769C242.114 350.769 173.163 360.868 166.9 359.477C160.637 358.086 151.23 355.65 150.185 355.296C149.14 354.942 137.739 356.711 133.904 357.756C130.069 358.801 120.758 365.659 121.49 366.544C122.222 367.428 126.041 365.804 126.041 365.804C126.041 365.804 123.548 367.412 125.156 367.718C126.764 368.023 130.302 366.544 130.302 366.544C130.302 366.544 127.946 368.747 130.004 368.747C132.063 368.747 136.903 366.544 136.903 366.544C136.903 366.544 134.266 369.036 135.729 369.181C137.192 369.326 144.396 364.783 144.983 364.486C145.57 364.188 149.389 365.957 154.816 366.986C158.947 367.609 163.131 367.806 167.302 367.573C167.302 367.573 230.874 373.153 237.33 373.153C243.786 373.153 246.874 373.153 247.461 372.711C248.048 372.268 298.555 315.152 301.787 311.044C305.019 306.935 305.461 306.34 305.461 306.34" fill="white"/>
<path d="M292.951 280.781C289.858 280.757 286.795 281.397 283.971 282.659C281.147 283.922 278.627 285.776 276.582 288.098C269.273 296.138 242.114 350.769 242.114 350.769C242.114 350.769 173.163 360.868 166.9 359.477C160.637 358.086 151.23 355.65 150.185 355.296C149.14 354.942 137.739 356.711 133.904 357.756C130.069 358.801 120.758 365.659 121.49 366.544C122.222 367.428 126.041 365.804 126.041 365.804C126.041 365.804 123.548 367.412 125.156 367.718C126.764 368.023 130.302 366.544 130.302 366.544C130.302 366.544 127.946 368.747 130.004 368.747C132.063 368.747 136.903 366.544 136.903 366.544C136.903 366.544 134.266 369.036 135.729 369.181C137.192 369.326 144.396 364.783 144.983 364.486C145.57 364.188 149.389 365.957 154.816 366.986C158.947 367.609 163.131 367.806 167.302 367.573C167.302 367.573 230.874 373.153 237.33 373.153C243.786 373.153 246.874 373.153 247.461 372.711C248.048 372.268 298.555 315.152 301.787 311.044C305.019 306.935 305.461 306.34 305.461 306.34" stroke="#263238" stroke-width="0.804" stroke-linecap="round" stroke-linejoin="round"/>
<path d="M292.951 280.781C289.874 280.855 286.842 281.54 284.032 282.796C281.222 284.052 278.689 285.854 276.582 288.098C273.977 290.944 268.855 299.723 263.34 309.806C268.751 310.867 279.331 314.38 288.778 326.014C295.612 318.224 300.838 312.242 301.787 311.012C305.003 306.903 306.233 305.384 306.233 305.384" fill="#263238"/>
<path d="M292.951 280.781C289.874 280.855 286.842 281.54 284.032 282.796C281.222 284.052 278.689 285.854 276.582 288.098C273.977 290.944 268.855 299.723 263.34 309.806C268.751 310.867 279.331 314.38 288.778 326.014C295.612 318.224 300.838 312.242 301.787 311.012C305.003 306.903 306.233 305.384 306.233 305.384" stroke="#263238" stroke-width="0.804" stroke-linecap="round" stroke-linejoin="round"/>
<path d="M136.906 366.544L145.356 360.811" stroke="#263238" stroke-width="0.804" stroke-linecap="round" stroke-linejoin="round"/>
<path d="M130.305 366.544C130.305 366.544 140.757 359.742 141.384 359.308" stroke="#263238" stroke-width="0.804" stroke-linecap="round" stroke-linejoin="round"/>
<path d="M126.043 365.82C126.043 365.82 132.837 360.369 137.42 358.689" stroke="#263238" stroke-width="0.804" stroke-linecap="round" stroke-linejoin="round"/>
<path d="M328.072 323.08C326.803 323.074 325.567 323.482 324.551 324.242C323.535 325.003 322.796 326.074 322.444 327.293L306.484 382.109H318.649L333.66 330.549C333.911 329.68 333.957 328.766 333.795 327.876C333.633 326.987 333.267 326.147 332.725 325.423C332.183 324.699 331.481 324.111 330.674 323.704C329.867 323.298 328.976 323.084 328.072 323.08Z" fill="#3b82f6" stroke="#263238" stroke-width="0.804" stroke-linecap="round" stroke-linejoin="round"/>
<path d="M235.325 373.522H42.9844V382.109H235.325V373.522Z" fill="#3b82f6" stroke="#263238" stroke-width="0.804" stroke-linecap="round" stroke-linejoin="round"/>
<path d="M37.1289 382.109H360.056" stroke="#263238" stroke-width="0.804" stroke-linecap="round" stroke-linejoin="round"/>
</svg>
