<svg width="1245" height="699" viewBox="0 0 1245 699" fill="none" xmlns="http://www.w3.org/2000/svg">
<g filter="url(#filter0_d_1_8532)">
<path d="M264.156 508.042C186.835 508.042 177.943 508.299 61.7096 508.867L53.971 511.581C66.3074 515.094 103.325 525 116.291 525H934.185C941.644 525 956.748 521.782 970.218 518.496C984.248 515.074 996.509 511.581 996.509 511.581L988.769 508.867C514.047 508.341 348.443 508.042 264.156 508.042Z" fill="#E8ECF7"/>
</g>
<path d="M883.389 0H166.67C160.897 0.00697872 155.362 2.30718 151.285 6.39441C147.207 10.4816 144.92 16.021 144.926 21.7945V495.584C144.921 498.873 145.662 502.12 147.094 505.082H902.963C904.396 502.121 905.138 498.874 905.135 495.584V21.7893C905.139 16.0165 902.851 10.4784 898.773 6.39235C894.695 2.30632 889.161 0.00697902 883.389 0Z" fill="#EEF0F3"/>
<path d="M525.028 14.455C526.436 14.455 527.577 13.3187 527.577 11.917C527.577 10.5152 526.436 9.37891 525.028 9.37891C523.621 9.37891 522.48 10.5152 522.48 11.917C522.48 13.3187 523.621 14.455 525.028 14.455Z" fill="#3A475B"/>
<path d="M264.156 508.042C186.835 508.042 177.943 508.299 61.7096 508.867L53.971 511.581C66.3074 515.094 103.325 525 116.291 525H934.185C941.644 525 956.748 521.782 970.218 518.496C984.248 515.074 996.509 511.581 996.509 511.581L988.769 508.867C514.047 508.341 348.443 508.042 264.156 508.042Z" fill="#BBC3CF"/>
<path d="M994.927 504.652H55.7253C55.367 504.652 55.0122 504.723 54.6812 504.861C54.3502 504.998 54.0496 505.199 53.7965 505.453C53.5434 505.707 53.3428 506.008 53.2061 506.339C53.0695 506.67 52.9994 507.025 52.9999 507.383V509.129C52.9994 509.487 53.0695 509.842 53.2061 510.173C53.3428 510.504 53.5434 510.805 53.7965 511.059C54.0496 511.313 54.3502 511.515 54.6812 511.652C55.0122 511.789 55.367 511.86 55.7253 511.86H994.927C995.286 511.86 995.641 511.789 995.972 511.652C996.303 511.515 996.603 511.313 996.857 511.06C997.11 510.806 997.31 510.505 997.447 510.174C997.583 509.842 997.654 509.487 997.653 509.129V507.383C997.654 507.025 997.583 506.67 997.447 506.339C997.31 506.008 997.11 505.706 996.857 505.453C996.603 505.199 996.303 504.998 995.972 504.86C995.641 504.723 995.286 504.652 994.927 504.652Z" fill="#D5DAE1"/>
<path d="M592.987 504.541H457.133C464.366 507.672 472.164 509.289 480.046 509.293H570.082C577.962 509.286 585.758 507.669 592.992 504.541" fill="#8896AB"/>
<defs>
<filter id="filter0_d_1_8532" x="0.176895" y="379.631" width="1244.48" height="318.899" filterUnits="userSpaceOnUse" color-interpolation-filters="sRGB">
<feFlood flood-opacity="0" result="BackgroundImageFix"/>
<feColorMatrix in="SourceAlpha" type="matrix" values="0 0 0 0 0 0 0 0 0 0 0 0 0 0 0 0 0 0 127 0" result="hardAlpha"/>
<feOffset dx="97.1765" dy="22.5588"/>
<feGaussianBlur stdDeviation="75.4853"/>
<feColorMatrix type="matrix" values="0 0 0 0 0.0911979 0 0 0 0 0.117884 0 0 0 0 0.2125 0 0 0 0.45 0"/>
<feBlend mode="normal" in2="BackgroundImageFix" result="effect1_dropShadow_1_8532"/>
<feBlend mode="normal" in="SourceGraphic" in2="effect1_dropShadow_1_8532" result="shape"/>
</filter>
</defs>
</svg>
