<svg width="120" height="13" viewBox="0 0 120 13" fill="none" xmlns="http://www.w3.org/2000/svg">
<path d="M119.351 0.36377H117.254V8.29559H117.152L111.674 0.36377H109.788V12.0001H111.896V4.074H111.993L117.476 12.0001H119.351V0.36377Z" fill="#232536"/>
<path d="M104.795 6.18186C104.795 2.4205 102.499 0.20459 99.4482 0.20459C96.3913 0.20459 94.1016 2.4205 94.1016 6.18186C94.1016 9.93754 96.3913 12.1591 99.4482 12.1591C102.499 12.1591 104.795 9.94323 104.795 6.18186ZM102.675 6.18186C102.675 8.82959 101.346 10.2671 99.4482 10.2671C97.5561 10.2671 96.2209 8.82959 96.2209 6.18186C96.2209 3.53414 97.5561 2.09664 99.4482 2.09664C101.346 2.09664 102.675 3.53414 102.675 6.18186Z" fill="#232536"/>
<path d="M89.1148 0.36377H87.0068V12.0001H89.1148V0.36377Z" fill="#232536"/>
<path d="M79.9396 3.56254H81.968C81.9283 1.59664 80.2521 0.20459 77.7749 0.20459C75.3317 0.20459 73.4964 1.57959 73.5021 3.63641C73.5021 5.30686 74.6896 6.26709 76.6044 6.76141L77.9283 7.10232C79.184 7.4205 80.0135 7.81254 80.0192 8.71595C80.0135 9.71027 79.0703 10.375 77.6953 10.375C76.3771 10.375 75.3544 9.78414 75.2692 8.56254H73.1953C73.2805 10.875 75.0021 12.1762 77.7124 12.1762C80.5021 12.1762 82.1214 10.7841 82.1271 8.733C82.1214 6.71595 80.4567 5.7955 78.7067 5.38073L77.6158 5.108C76.6612 4.88073 75.6271 4.47732 75.6385 3.50573C75.6442 2.63073 76.4283 1.98868 77.7465 1.98868C79.0021 1.98868 79.8317 2.57391 79.9396 3.56254Z" fill="#232536"/>
<path d="M68.3335 0.36377H66.2256V12.0001H68.3335V0.36377Z" fill="#232536"/>
<path d="M53.2041 0.36377H50.8916L54.9882 12.0001H57.5905L61.6927 0.36377H59.3746L56.3518 9.52286H56.2325L53.2041 0.36377Z" fill="#232536"/>
<path d="M31.2725 12.0001H33.3804V7.73877H35.5281L37.8122 12.0001H40.1645L37.6475 7.3865C39.0168 6.83536 39.7384 5.66491 39.7384 4.08536C39.7384 1.86377 38.3066 0.36377 35.6361 0.36377H31.2725V12.0001ZM33.3804 5.98877V2.12513H35.3122C36.8861 2.12513 37.5906 2.84672 37.5906 4.08536C37.5906 5.324 36.8861 5.98877 35.3236 5.98877H33.3804Z" fill="#232536"/>
<path d="M23.8733 0.36377V7.78991C23.8733 9.25013 22.8563 10.2956 21.2597 10.2956C19.6574 10.2956 18.646 9.25013 18.646 7.78991V0.36377H16.5381V7.96604C16.5381 10.466 18.4131 12.1763 21.2597 12.1763C24.0949 12.1763 25.9813 10.466 25.9813 7.96604V0.36377H23.8733Z" fill="#232536"/>
<path d="M11.5447 6.18186C11.5447 2.4205 9.24929 0.20459 6.19815 0.20459C3.14134 0.20459 0.851562 2.4205 0.851562 6.18186C0.851562 9.93754 3.14134 12.1591 6.19815 12.1591C9.24929 12.1591 11.5447 9.94323 11.5447 6.18186ZM9.42543 6.18186C9.42543 8.82959 8.09588 10.2671 6.19815 10.2671C4.30611 10.2671 2.97088 8.82959 2.97088 6.18186C2.97088 3.53414 4.30611 2.09664 6.19815 2.09664C8.09588 2.09664 9.42543 3.53414 9.42543 6.18186Z" fill="#232536"/>
</svg>
